<svg width="191" height="66" viewBox="0 0 191 66" fill="none" xmlns="http://www.w3.org/2000/svg">
<g clip-path="url(#clip0_3367_5943)">
<g clip-path="url(#clip1_3367_5943)">
<path fill-rule="evenodd" clip-rule="evenodd" d="M22.5137 55.0009C10.4137 55.0009 0.513672 45.1009 0.513672 32.8909C0.623672 20.7909 10.4137 10.8909 22.6237 11.0009C34.7237 11.1109 44.5137 20.9009 44.5137 33.2209C44.4037 45.2109 34.6137 55.0009 22.5137 55.0009Z" fill="#0090FF"/>
<path fill-rule="evenodd" clip-rule="evenodd" d="M24.6041 30.3594L23.9441 33.8794L30.2141 34.7594L29.7741 36.4094L23.6141 35.5294C23.1741 36.9594 22.9541 38.4994 22.4041 39.8194C21.8541 41.3594 21.3041 42.8994 20.6441 44.3294C19.7641 46.1994 18.2241 47.5194 16.1341 47.8494C14.9241 48.0694 13.6041 47.9594 12.6141 47.1894C12.2841 46.9694 11.9541 46.5294 11.9541 46.1994C11.9541 45.7594 12.1741 45.2094 12.5041 44.9894C12.7241 44.8794 13.2741 44.9894 13.6041 45.0994C13.9341 45.4294 14.2641 45.8694 14.4841 46.3094C15.1441 47.1894 16.0241 47.2994 16.9041 46.6394C17.8941 45.7594 18.4441 44.5494 18.7741 43.3394C19.4341 40.6994 20.0941 38.1694 20.6441 35.5294V35.0894L14.8141 34.2094L15.0341 32.5594L21.0841 33.4394L21.8541 30.0294L15.5841 29.0394L15.8041 27.2794L22.2941 28.1594C22.5141 27.4994 22.6241 26.9494 22.8441 26.3994C23.3941 24.4194 23.9441 22.4394 25.2641 20.6794C26.5841 18.9194 28.1241 17.8194 30.4341 17.9294C31.4241 17.9294 32.4141 18.2594 33.0741 19.0294C33.1841 19.1394 33.4041 19.3594 33.4041 19.5794C33.4041 20.0194 33.4041 20.5694 33.0741 20.8994C32.6341 21.2294 32.0841 21.1194 31.6441 20.6794C31.3141 20.3494 31.0941 20.0194 30.7641 19.6894C30.1041 18.8094 29.1141 18.6994 28.3441 19.4694C27.7941 20.0194 27.2441 20.7894 26.9141 21.5594C26.1441 23.8694 25.5941 26.2894 24.8241 28.7094L30.8741 29.5894L30.4341 31.2394L24.6041 30.3594Z" fill="white"/>
</g>
<path d="M55.5137 42.654V22.5282H68.9375V26.0747H59.8627V30.6881H67.9807V34.2346H59.8627V42.654H55.5137Z" fill="white"/>
<path d="M80.2045 25.8729C79.2381 25.8729 78.5616 25.6806 78.175 25.2962C77.8078 24.8925 77.6242 24.412 77.6242 23.8545V23.0183C77.6242 22.4417 77.8078 21.9611 78.175 21.5767C78.5616 21.1922 79.2381 21 80.2045 21C81.171 21 81.8378 21.1922 82.2051 21.5767C82.5917 21.9611 82.7849 22.4417 82.7849 23.0183V23.8545C82.7849 24.412 82.5917 24.8925 82.2051 25.2962C81.8378 25.6806 81.171 25.8729 80.2045 25.8729ZM73.3042 39.3381H78.059V31.0917H73.3042V27.7759H82.35V39.3381H86.757V42.654H73.3042V39.3381Z" fill="white"/>
<path d="M89.9349 39.3381H94.5159V24.633H89.9349V21.3172H98.8069V39.3381H103.388V42.654H89.9349V39.3381Z" fill="white"/>
<path d="M114.452 43C111.939 43 110.035 42.308 108.74 40.924C107.445 39.54 106.798 37.6562 106.798 35.2726C106.798 34.0616 106.962 32.9755 107.291 32.0144C107.638 31.0341 108.122 30.2075 108.74 29.5347C109.378 28.8427 110.142 28.3237 111.031 27.9777C111.939 27.6125 112.954 27.4299 114.075 27.4299C115.196 27.4299 116.201 27.6125 117.09 27.9777C117.979 28.3237 118.733 28.8235 119.352 29.4771C119.97 30.1306 120.444 30.9284 120.772 31.8702C121.12 32.7929 121.294 33.8309 121.294 34.9843V36.2529H111.06V36.5125C111.06 37.4736 111.359 38.2521 111.958 38.848C112.558 39.4246 113.437 39.713 114.597 39.713C115.486 39.713 116.249 39.5496 116.887 39.2228C117.525 38.8768 118.076 38.4251 118.54 37.8676L120.859 40.3761C120.279 41.0874 119.468 41.7025 118.424 42.2215C117.38 42.7405 116.056 43 114.452 43ZM114.104 30.4862C113.176 30.4862 112.432 30.7746 111.871 31.3512C111.33 31.9087 111.06 32.668 111.06 33.6291V33.8598H117.09V33.6291C117.09 32.6488 116.82 31.8799 116.278 31.3224C115.757 30.765 115.032 30.4862 114.104 30.4862Z" fill="white"/>
<path d="M132.039 43C130.86 43 129.797 42.827 128.85 42.481C127.922 42.1158 127.13 41.5968 126.473 40.924C125.835 40.2512 125.342 39.4343 124.994 38.4731C124.646 37.512 124.472 36.426 124.472 35.2149C124.472 34.0039 124.646 32.9179 124.994 31.9567C125.342 30.9956 125.835 30.1787 126.473 29.5059C127.13 28.8331 127.922 28.3237 128.85 27.9777C129.797 27.6125 130.851 27.4299 132.01 27.4299C133.653 27.4299 134.968 27.7663 135.953 28.4391C136.959 29.0926 137.722 29.9672 138.244 31.0629L134.939 32.8506C134.668 32.2739 134.311 31.7934 133.866 31.4089C133.441 31.0245 132.822 30.8322 132.01 30.8322C131.025 30.8322 130.261 31.1206 129.72 31.6972C129.198 32.2547 128.937 33.0236 128.937 34.0039V36.426C128.937 37.4063 129.198 38.1848 129.72 38.7615C130.261 39.3189 131.044 39.5976 132.068 39.5976C132.9 39.5976 133.547 39.4054 134.011 39.021C134.494 38.6365 134.9 38.1367 135.229 37.5216L138.476 39.367C137.935 40.4626 137.142 41.3469 136.098 42.0197C135.074 42.6732 133.721 43 132.039 43Z" fill="white"/>
<path d="M148.815 43C147.655 43 146.612 42.827 145.684 42.481C144.756 42.1158 143.964 41.5968 143.306 40.924C142.669 40.2512 142.176 39.4343 141.828 38.4731C141.48 37.512 141.306 36.426 141.306 35.2149C141.306 34.0039 141.48 32.9179 141.828 31.9567C142.176 30.9956 142.669 30.1787 143.306 29.5059C143.964 28.8331 144.756 28.3237 145.684 27.9777C146.612 27.6125 147.655 27.4299 148.815 27.4299C149.975 27.4299 151.019 27.6125 151.946 27.9777C152.874 28.3237 153.657 28.8331 154.295 29.5059C154.952 30.1787 155.455 30.9956 155.802 31.9567C156.15 32.9179 156.324 34.0039 156.324 35.2149C156.324 36.426 156.15 37.512 155.802 38.4731C155.455 39.4343 154.952 40.2512 154.295 40.924C153.657 41.5968 152.874 42.1158 151.946 42.481C151.019 42.827 149.975 43 148.815 43ZM148.815 39.8283C149.782 39.8283 150.535 39.5304 151.077 38.9345C151.618 38.3386 151.888 37.4928 151.888 36.3971V34.0328C151.888 32.9371 151.618 32.0913 151.077 31.4954C150.535 30.8995 149.782 30.6016 148.815 30.6016C147.849 30.6016 147.095 30.8995 146.554 31.4954C146.012 32.0913 145.742 32.9371 145.742 34.0328V36.3971C145.742 37.4928 146.012 38.3386 146.554 38.9345C147.095 39.5304 147.849 39.8283 148.815 39.8283Z" fill="white"/>
<path d="M167.127 25.8729C166.161 25.8729 165.485 25.6806 165.098 25.2962C164.731 24.8925 164.547 24.412 164.547 23.8545V23.0183C164.547 22.4417 164.731 21.9611 165.098 21.5767C165.485 21.1922 166.161 21 167.127 21C168.094 21 168.761 21.1922 169.128 21.5767C169.515 21.9611 169.708 22.4417 169.708 23.0183V23.8545C169.708 24.412 169.515 24.8925 169.128 25.2962C168.761 25.6806 168.094 25.8729 167.127 25.8729ZM160.227 39.3381H164.982V31.0917H160.227V27.7759H169.273V39.3381H173.68V42.654H160.227V39.3381Z" fill="white"/>
<path d="M176.771 42.654V27.7759H181.062V30.4862H181.236C181.41 30.0633 181.622 29.6693 181.874 29.3041C182.125 28.9388 182.425 28.6217 182.772 28.3526C183.14 28.0642 183.555 27.8432 184.019 27.6894C184.502 27.5164 185.044 27.4299 185.643 27.4299C186.358 27.4299 187.015 27.5548 187.614 27.8047C188.214 28.0354 188.726 28.391 189.151 28.8716C189.576 29.3521 189.905 29.9384 190.137 30.6304C190.388 31.3224 190.514 32.1201 190.514 33.0236V42.654H186.223V33.6003C186.223 31.678 185.382 30.7169 183.7 30.7169C183.372 30.7169 183.043 30.765 182.715 30.8611C182.405 30.938 182.125 31.0725 181.874 31.2647C181.622 31.4377 181.419 31.6588 181.265 31.9279C181.13 32.197 181.062 32.5142 181.062 32.8794V42.654H176.771Z" fill="white"/>
</g>
<defs>
<clipPath id="clip0_3367_5943">
<rect width="190" height="66" fill="white" transform="translate(0.513672)"/>
</clipPath>
<clipPath id="clip1_3367_5943">
<rect width="44" height="44" fill="white" transform="translate(0.513672 11)"/>
</clipPath>
</defs>
</svg>
