<svg width="176" height="66" viewBox="0 0 176 66" fill="none" xmlns="http://www.w3.org/2000/svg">
<path d="M44.5313 43.8399H59.4603C59.8737 43.8399 60.2078 43.5057 60.2078 43.0938V40.0202C60.2078 39.6917 59.9955 39.4142 59.701 39.3137C59.626 39.2882 59.5453 39.2741 59.4603 39.2741H50.3358C49.9238 39.2741 49.5897 38.9399 49.5897 38.528V21.2969C49.5897 20.8849 49.2556 20.5508 48.8422 20.5508H44.5313C44.1193 20.5508 43.7852 20.8849 43.7852 21.2969V43.0938C43.7852 43.5057 44.1193 43.8399 44.5313 43.8399Z" fill="#B3FEF0"/>
<path d="M63.3955 43.8399H67.7065C68.1199 43.8399 68.454 43.5057 68.454 43.0938V21.2969C68.454 20.8849 68.1199 20.5508 67.7065 20.5508H63.3955C62.9835 20.5508 62.6494 20.8849 62.6494 21.2969V43.0938C62.6494 43.5057 62.9835 43.8399 63.3955 43.8399Z" fill="#B3FEF0"/>
<path d="M72.5625 43.8399H87.4916C87.9036 43.8399 88.2391 43.5057 88.2391 43.0938V40.0202C88.2391 39.6082 87.9036 39.2741 87.4916 39.2741H78.3671C78.1391 39.2741 77.9353 39.1721 77.7994 39.0107C77.6875 38.8805 77.621 38.7106 77.621 38.528V21.2969C77.621 20.8849 77.2854 20.5508 76.8735 20.5508H72.5625C72.1505 20.5508 71.8164 20.8849 71.8164 21.2969V43.0938C71.8164 43.5057 72.1505 43.8399 72.5625 43.8399Z" fill="#B3FEF0"/>
<path d="M91.4848 34.7366C91.5613 34.8569 91.6023 34.9957 91.6023 35.1387V43.0938C91.6023 43.5057 91.9364 43.8399 92.3484 43.8399H96.6594C97.0713 43.8399 97.4069 43.5057 97.4069 43.0938V35.1387C97.4069 34.9971 97.4465 34.8569 97.5244 34.7366L105.873 21.7004C106.19 21.2034 105.833 20.5508 105.244 20.5508H100.574C100.302 20.5508 100.05 20.6994 99.9198 20.9401L95.1063 29.7531H95.0001L90.1158 20.9359C89.9841 20.698 89.7349 20.5508 89.4631 20.5508H83.7973C83.2069 20.5508 82.8502 21.202 83.1673 21.699L91.4848 34.7366Z" fill="#B3FEF0"/>
<path d="M118.782 20.5508H109.513C109.1 20.5508 108.766 20.8849 108.766 21.2969V43.0938C108.766 43.5057 109.1 43.8399 109.513 43.8399H113.824C114.236 43.8399 114.57 43.5057 114.57 43.0938V37.9319C114.57 37.5199 114.904 37.1858 115.318 37.1858H119.313C125.401 37.1858 128.303 34.142 128.303 28.9745C128.303 23.3469 124.728 20.5508 118.782 20.5508ZM119.065 33.2925H115.318C114.904 33.2925 114.57 32.9584 114.57 32.5464V25.8627C114.57 25.4507 114.904 25.1166 115.318 25.1166H118.605C121.366 25.1166 122.852 26.6031 122.852 29.2576C122.852 31.9122 121.507 33.2925 119.065 33.2925Z" fill="#B3FEF0"/>
<path d="M151.696 42.8248L143.283 21.0279C143.171 20.7405 142.895 20.5508 142.586 20.5508H136.389C136.081 20.5508 135.805 20.7405 135.693 21.0279L127.279 42.8248C127.091 43.3132 127.452 43.8399 127.976 43.8399H132.296C132.618 43.8399 132.902 43.6346 133.004 43.3302L134.256 39.6053C134.358 39.3024 134.642 39.0971 134.964 39.0971H143.198C143.519 39.0971 143.804 39.3024 143.906 39.6053L145.157 43.3302C145.259 43.6346 145.544 43.8399 145.865 43.8399H151C151.524 43.8399 151.885 43.3132 151.696 42.8248ZM141.492 35.4869H136.665C136.156 35.4869 135.796 34.9872 135.958 34.5044L138.778 26.2336C138.883 25.9292 139.314 25.9306 139.416 26.235L142.2 34.5016C142.362 34.9858 142.003 35.4869 141.492 35.4869Z" fill="#B3FEF0"/>
<path d="M163.661 20.5508H155.029C154.615 20.5508 154.281 20.8849 154.281 21.2969V43.0938C154.281 43.5057 154.615 43.8399 155.029 43.8399H164.404C171.341 43.8399 175.694 39.8404 175.694 32.1599C175.694 24.4795 171.093 20.5508 163.661 20.5508ZM168.943 37.1745C167.067 39.0504 164.33 39.5459 162.001 38.6582C161.848 38.6002 161.773 38.426 161.84 38.2774L164.259 32.722C164.284 32.6668 164.225 32.6115 164.172 32.6384L159.042 35.1797L158.744 35.3284C158.596 35.4006 158.419 35.334 158.354 35.184C157.438 33.0971 157.669 30.6309 159.042 28.7352C159.243 28.4592 159.467 28.1958 159.716 27.9467C162.265 25.3983 166.396 25.3997 168.943 27.9467C171.49 30.4936 171.491 34.6262 168.943 37.1745Z" fill="#B3FEF0"/>
<path d="M34.1691 25.2631L19.417 32.1974H35.9147C36.2984 32.1974 36.6028 31.8704 36.5716 31.4881C36.4031 29.4664 35.8963 27.4688 35.0483 25.5859C34.8982 25.2517 34.5004 25.1059 34.1677 25.2616L34.1691 25.2631Z" fill="#14C7C3"/>
<path d="M17.1402 15.004C13.4762 15.297 9.88444 16.7029 6.9142 19.2229C6.62256 19.4707 6.60698 19.9166 6.87739 20.1884L17.848 31.1591V15.6609C17.848 15.2772 17.521 14.9742 17.1402 15.004Z" fill="#14C7C3"/>
<path d="M4.87442 21.2589C2.32891 24.2234 0.900418 27.8166 0.5932 31.4877C0.560638 31.8699 0.86644 32.1984 1.25011 32.1984H16.8106L5.83713 21.2249C5.56673 20.9545 5.1236 20.9686 4.87442 21.2589Z" fill="#14C7C3"/>
<path d="M20.0272 50.9981C23.7223 50.7036 27.3438 49.2751 30.3282 46.7126C30.6184 46.4634 30.6326 46.0203 30.3622 45.7499L19.3193 34.707V50.3411C19.3193 50.7248 19.6464 51.0278 20.0272 50.9981Z" fill="#14C7C3"/>
<path d="M6.84187 46.7106C9.82627 49.2717 13.4463 50.7016 17.1414 50.9961C17.5237 51.0272 17.8493 50.7229 17.8493 50.3392V34.7051L6.8079 45.7465C6.53749 46.0169 6.55164 46.46 6.84187 46.7092V46.7106Z" fill="#14C7C3"/>
<path d="M0.58289 34.373C0.861792 38.061 2.26905 41.6797 4.80607 44.6683C5.05382 44.96 5.49979 44.9756 5.77161 44.7051L16.8088 33.668H1.2398C0.857545 33.668 0.554575 33.9922 0.58289 34.3744V34.373Z" fill="#14C7C3"/>
<path d="M25.1791 16.1884C23.5184 15.5372 21.7799 15.1422 20.0258 15.002C19.645 14.9723 19.3193 15.2767 19.3193 15.6589V32.083L25.5458 17.052C25.686 16.7122 25.5217 16.3215 25.1791 16.187V16.1884Z" fill="#14C7C3"/>
<path d="M32.362 44.6706C34.899 41.682 36.3063 38.0619 36.5852 34.3725C36.6135 33.9916 36.3105 33.666 35.9283 33.666H20.3564L31.3965 44.706C31.6669 44.9764 32.1142 44.9609 32.362 44.6692V44.6706Z" fill="#14C7C3"/>
</svg>
