<svg width="187" height="66" viewBox="0 0 187 66" fill="none" xmlns="http://www.w3.org/2000/svg">
<g clip-path="url(#clip0_3367_5972)">
<mask id="mask0_3367_5972" style="mask-type:luminance" maskUnits="userSpaceOnUse" x="0" y="15" width="187" height="36">
<path d="M186.882 15H0.694336V51H186.882V15Z" fill="white"/>
</mask>
<g mask="url(#mask0_3367_5972)">
<path d="M23.4765 50.9144C22.8794 50.9144 22.2876 50.795 21.738 50.565C21.1866 50.3349 20.6861 49.9995 20.2664 49.5746L16.7524 46.0694C16.4416 45.7586 16.266 45.3353 16.266 44.8963C16.266 44.4573 16.4416 44.034 16.7524 43.7232C17.0633 43.4124 17.4865 43.2368 17.9255 43.2368C18.3645 43.2368 18.7877 43.4124 19.0985 43.7232L22.5967 47.2214C22.8338 47.4479 23.1499 47.5726 23.4765 47.5726C23.8031 47.5726 24.1193 47.4462 24.3563 47.2214L40.7407 30.8422C41.4203 30.1837 41.9629 29.3952 42.3317 28.5242C42.7005 27.6532 42.8902 26.7154 42.8902 25.7689C42.8902 22.1636 40.1629 18.4337 35.6024 18.4337C34.6172 18.4337 33.6426 18.6339 32.7382 19.0272C31.8847 19.3855 31.1103 19.9088 30.4587 20.5638L26.7077 24.3148C26.2845 24.7398 25.7823 25.077 25.2291 25.3053C24.6759 25.5353 24.0824 25.6512 23.4818 25.6495C22.8829 25.6512 22.2876 25.5336 21.7345 25.3035C21.1813 25.0735 20.6773 24.7363 20.2558 24.3096L16.4995 20.5463C15.8305 19.8754 15.0349 19.3433 14.1587 18.9816L14.0989 18.957C12.9452 18.4881 11.6913 18.3213 10.4551 18.4758C9.12216 18.6286 7.86126 19.1607 6.8217 20.0106C5.78382 20.8606 5.01114 21.9898 4.5967 23.2664C4.13133 24.5835 4.05055 26.006 4.35962 27.3687C4.67046 28.7314 5.3606 29.9782 6.34926 30.9634L13.314 37.9281C13.6371 38.2495 14.0744 38.4304 14.5309 38.4304C14.9875 38.4304 15.4248 38.2495 15.7479 37.9281L21.09 32.586L17.9922 29.49C17.9097 29.4163 17.8061 29.3654 17.6954 29.3478C17.5848 29.3302 17.4724 29.3426 17.3688 29.3847C17.2652 29.4268 17.1756 29.4988 17.1124 29.5902C17.0474 29.6815 17.0105 29.7886 17.0035 29.901V34.8479C16.986 35.2764 16.8033 35.6803 16.4925 35.9771C16.1834 36.2738 15.7707 36.4389 15.3423 36.4389C14.9138 36.4389 14.5011 36.2738 14.192 35.9771C13.8829 35.6803 13.7003 35.2764 13.681 34.8479V29.9186C13.681 29.1476 13.9093 28.3925 14.3378 27.7515C14.7663 27.1106 15.3756 26.61 16.0869 26.315C16.7998 26.02 17.5831 25.9427 18.3399 26.092C19.0968 26.243 19.7922 26.6136 20.3366 27.1597L23.4344 30.2575L26.7551 26.9315C27.3013 26.387 27.9967 26.0147 28.7536 25.8655C29.5105 25.7162 30.2937 25.7935 31.0067 26.0885C31.7196 26.3835 32.329 26.884 32.7575 27.525C33.186 28.166 33.4143 28.9211 33.416 29.692V35.6487C33.4107 36.4073 33.1807 37.1466 32.7575 37.7753C32.3343 38.404 31.7337 38.894 31.033 39.1855C30.3323 39.4752 29.5614 39.5525 28.8168 39.4067C28.0722 39.261 27.3873 38.8992 26.8482 38.3671L23.4361 34.955L18.0941 40.2971C17.1493 41.2401 15.8673 41.7687 14.5327 41.7687C13.1981 41.7687 11.9179 41.2401 10.9713 40.2971L3.99963 33.3289C2.5684 31.9029 1.56919 30.1029 1.11787 28.1326C0.666554 26.164 0.782456 24.1058 1.45153 22.2005C2.0767 20.339 3.21641 18.6918 4.7407 17.452C6.26324 16.2122 8.10713 15.429 10.0582 15.1937C11.8424 14.9742 13.6547 15.2095 15.3229 15.8785L15.3739 15.8996L15.416 15.9137C16.705 16.4423 17.8763 17.2237 18.858 18.2106L22.6055 21.9582C22.7214 22.0758 22.8601 22.1689 23.0129 22.2321C23.1657 22.2953 23.3307 22.3252 23.4958 22.3234C23.6609 22.3252 23.826 22.2953 23.9787 22.2321C24.1315 22.1689 24.2703 22.0758 24.3862 21.9582L28.1372 18.2106C30.1251 16.2263 32.8189 15.1111 35.6269 15.1094C42.2685 15.1094 46.2355 20.5287 46.2355 25.7671C46.232 27.1492 45.9528 28.5154 45.4189 29.7886C44.8833 31.0618 44.1019 32.2173 43.1167 33.1866L26.7358 49.5675C26.3091 49.9978 25.8016 50.3402 25.2414 50.5702C24.6812 50.8003 24.0806 50.918 23.4747 50.9127L23.4765 50.9144ZM25.7823 32.6106L29.1944 36.0227C29.2681 36.093 29.3612 36.1404 29.4613 36.158C29.5614 36.1755 29.665 36.165 29.7598 36.1264C29.8547 36.0877 29.9354 36.021 29.9916 35.9367C30.0496 35.8524 30.0812 35.754 30.0847 35.6522V29.6955C30.0777 29.5831 30.0408 29.476 29.9758 29.3847C29.9109 29.2934 29.8213 29.2231 29.7194 29.1792C29.6158 29.1371 29.5035 29.123 29.3928 29.1424C29.2822 29.1617 29.1803 29.2108 29.096 29.2846L25.7805 32.6089L25.7823 32.6106Z" fill="url(#paint0_linear_3367_5972)"/>
<path d="M23.448 34.9485L20.7243 37.6704L18.3799 35.3067L21.0755 32.5742L23.448 34.9485Z" fill="url(#paint1_linear_3367_5972)"/>
<path d="M23.4375 30.2629L26.0523 27.6445L28.3598 30.0258L25.7819 32.6107L23.4375 30.2629Z" fill="url(#paint2_linear_3367_5972)"/>
<path d="M54.9702 27.7227C54.9562 27.4365 55.0036 27.152 55.1054 26.885C55.2073 26.6181 55.3636 26.374 55.5638 26.1703C55.764 25.9666 56.0046 25.8068 56.2697 25.6997C56.5349 25.5925 56.8194 25.5416 57.1054 25.5504C57.3934 25.5434 57.6797 25.5943 57.9469 25.6997C58.2135 25.8068 58.4559 25.9666 58.6596 26.1685C58.8632 26.3723 59.0235 26.6146 59.1304 26.8815C59.2373 27.1485 59.2884 27.4347 59.2817 27.7227V28.613C60.4916 26.9395 62.1296 25.373 65.0186 25.373C67.7248 25.373 69.6514 26.6901 70.6577 28.685C72.1888 26.6901 74.1502 25.373 76.9987 25.373C81.1326 25.373 83.5929 27.9721 83.5929 32.5695V42.6179C83.6036 42.9024 83.5558 43.1851 83.4523 43.4485C83.3488 43.7137 83.1908 43.9525 82.9905 44.1527C82.7903 44.3529 82.5495 44.511 82.2846 44.6129C82.0196 44.7165 81.7367 44.7639 81.4538 44.7533C81.1674 44.7656 80.8834 44.72 80.6162 44.6181C80.3496 44.5163 80.1054 44.36 79.9013 44.1598C79.6976 43.9596 79.5362 43.719 79.431 43.4538C79.3236 43.1887 79.2729 42.9041 79.2814 42.6179V33.8989C79.2814 30.9083 77.8892 29.3014 75.4676 29.3014C73.0455 29.3014 71.4317 30.9311 71.4317 33.9569V42.6161C71.4109 43.1746 71.1758 43.7032 70.7736 44.0895C70.3714 44.4776 69.8336 44.6936 69.2773 44.6936C68.7204 44.6936 68.1816 44.4776 67.7794 44.0895C67.3772 43.7014 67.1398 43.1746 67.1207 42.6161V33.8497C67.1207 30.8819 65.7313 29.2891 63.3064 29.2891C60.8814 29.2891 59.2851 31.0733 59.2851 33.9569V42.6161C59.2637 43.1746 59.0286 43.7032 58.6264 44.0895C58.2242 44.4776 57.687 44.6936 57.1301 44.6936C56.5735 44.6936 56.0344 44.4776 55.6322 44.0895C55.2301 43.7014 54.993 43.1746 54.9737 42.6161L54.9702 27.7209V27.7227Z" fill="white"/>
<path d="M87.1562 35.2773V35.2035C87.1562 29.8228 91.4324 25.3711 97.2047 25.3711C102.977 25.3711 107.218 29.7508 107.218 35.1315V35.2035C107.218 40.5157 102.942 44.9973 97.1277 44.9973C91.4099 45.0025 87.1562 40.6228 87.1562 35.2773ZM102.905 35.2773V35.2035C102.905 31.8915 100.517 29.1467 97.1328 29.1467C93.7488 29.1467 91.4678 31.8564 91.4678 35.1333V35.2053C91.4678 38.4839 93.8894 41.2304 97.2047 41.2304C100.745 41.2304 102.918 38.5208 102.918 35.2808H102.905V35.2773Z" fill="white"/>
<path d="M110.781 27.7103C110.769 27.424 110.814 27.1377 110.916 26.8708C111.018 26.6039 111.176 26.3598 111.376 26.1561C111.577 25.9524 111.817 25.7926 112.084 25.6855C112.35 25.5783 112.636 25.5292 112.922 25.5379C113.21 25.5309 113.494 25.5819 113.763 25.6872C114.032 25.7926 114.272 25.9541 114.476 26.1561C114.68 26.3598 114.84 26.6021 114.945 26.8691C115.052 27.136 115.103 27.4223 115.094 27.7103V28.6357C116.341 26.8901 118.018 25.3711 120.974 25.3711C125.25 25.3711 127.675 28.1844 127.675 32.5676V42.616C127.686 42.9004 127.638 43.1832 127.534 43.4466C127.431 43.7118 127.273 43.9506 127.072 44.1508C126.872 44.351 126.632 44.5091 126.366 44.6109C126.102 44.7145 125.819 44.7619 125.536 44.7514C125.25 44.7637 124.965 44.7181 124.698 44.6162C124.431 44.5143 124.189 44.3581 123.984 44.1579C123.78 43.9577 123.62 43.7171 123.513 43.4519C123.406 43.1867 123.355 42.9022 123.364 42.616V33.8847C123.364 30.9169 121.904 29.2872 119.337 29.2872C116.77 29.2872 115.096 30.9994 115.096 33.9549V42.6143C115.075 43.1727 114.84 43.7013 114.438 44.0876C114.035 44.4757 113.498 44.6917 112.94 44.6917C112.381 44.6917 111.846 44.4757 111.443 44.0876C111.041 43.6995 110.804 43.1727 110.785 42.6143V27.7103H110.781Z" fill="white"/>
<path d="M133.8 39.2216V29.3154H133.087C132.596 29.3154 132.125 29.1205 131.777 28.7728C131.43 28.4251 131.234 27.9544 131.234 27.4628C131.234 26.971 131.43 26.5004 131.777 26.1527C132.125 25.805 132.596 25.6101 133.087 25.6101H133.8V22.4017C133.821 21.8432 134.056 21.3146 134.459 20.9283C134.861 20.5402 135.398 20.3242 135.955 20.3242C136.512 20.3242 137.051 20.5402 137.453 20.9283C137.855 21.3164 138.092 21.8432 138.111 22.4017V25.6101H141.497C141.989 25.6101 142.46 25.805 142.807 26.1527C143.155 26.5004 143.35 26.971 143.35 27.4628C143.35 27.9544 143.155 28.4251 142.807 28.7728C142.46 29.1205 141.989 29.3154 141.497 29.3154H138.111V38.5455C138.111 40.2226 138.967 40.8986 140.43 40.8986C140.788 40.8846 141.144 40.8477 141.497 40.7915C141.922 40.774 142.34 40.9092 142.674 41.1726C143.007 41.436 143.236 41.8101 143.318 42.228C143.401 42.646 143.33 43.078 143.12 43.4485C142.909 43.819 142.574 44.1018 142.173 44.2458C141.22 44.583 140.217 44.7515 139.206 44.7445C136.044 44.7445 133.798 43.3554 133.798 39.2216H133.8Z" fill="white"/>
<path d="M156.569 45.0008C151.153 45.0008 146.912 41.0478 146.912 35.2368V35.1648C146.912 29.749 150.723 25.3711 156.112 25.3711C162.099 25.3711 165.054 30.2882 165.054 34.6328C165.065 34.905 165.021 35.1754 164.924 35.4301C164.828 35.6846 164.679 35.9147 164.489 36.1097C164.299 36.3046 164.071 36.4574 163.82 36.561C163.569 36.6646 163.298 36.7155 163.026 36.7103H151.227C151.691 39.808 153.826 41.485 156.643 41.485C158.274 41.4886 159.855 40.9055 161.094 39.8431C161.396 39.5726 161.793 39.4322 162.197 39.4515C162.425 39.4515 162.652 39.4937 162.863 39.5814C163.073 39.6692 163.265 39.7992 163.425 39.9625C163.585 40.1259 163.709 40.319 163.792 40.5315C163.874 40.744 163.915 40.9705 163.907 41.1988C163.899 41.6958 163.693 42.1699 163.339 42.5159C161.632 44.0349 159.528 44.9972 156.572 44.9972L156.569 45.0008ZM160.841 33.8478C160.545 31.1065 158.919 28.8956 156.07 28.8956C153.399 28.8956 151.58 30.8923 151.188 33.8478H160.841Z" fill="white"/>
<path d="M178.272 45.0008C172.856 45.0008 168.618 41.0478 168.618 35.2368V35.1648C168.618 29.749 172.429 25.3711 177.818 25.3711C183.807 25.3711 186.762 30.2882 186.762 34.6328C186.775 34.905 186.729 35.1754 186.632 35.4301C186.536 35.6846 186.386 35.9147 186.197 36.1097C186.007 36.3046 185.779 36.4574 185.526 36.561C185.275 36.6646 185.004 36.7155 184.732 36.7103H172.93C173.395 39.808 175.532 41.485 178.349 41.485C179.982 41.4886 181.561 40.9055 182.8 39.8431C183.104 39.5726 183.501 39.4322 183.907 39.4515C184.135 39.4515 184.362 39.4937 184.572 39.5814C184.783 39.6692 184.975 39.7992 185.133 39.9625C185.292 40.1259 185.417 40.319 185.5 40.5315C185.582 40.744 185.623 40.9705 185.616 41.1988C185.607 41.6958 185.403 42.1699 185.047 42.5159C183.317 44.0349 181.218 44.9972 178.272 44.9972V45.0008ZM182.548 33.8478C182.251 31.1065 180.625 28.8956 177.773 28.8956C175.102 28.8956 173.286 30.8923 172.891 33.8478H182.548Z" fill="white"/>
</g>
</g>
<defs>
<linearGradient id="paint0_linear_3367_5972" x1="35.8991" y1="12.6807" x2="10.7816" y2="39.0906" gradientUnits="userSpaceOnUse">
<stop stop-color="#C0DB5E"/>
<stop offset="0.78" stop-color="#8FB700"/>
<stop offset="0.98" stop-color="#80AF00"/>
</linearGradient>
<linearGradient id="paint1_linear_3367_5972" x1="19.5301" y1="36.4921" x2="22.2503" y2="33.7719" gradientUnits="userSpaceOnUse">
<stop stop-color="#93C400" stop-opacity="0"/>
<stop offset="1" stop-color="#6C9913"/>
</linearGradient>
<linearGradient id="paint2_linear_3367_5972" x1="12.0519" y1="28.783" x2="9.32651" y2="31.3984" gradientUnits="userSpaceOnUse">
<stop offset="0.01" stop-color="#A7D100" stop-opacity="0"/>
<stop offset="0.98" stop-color="#6C9C00"/>
</linearGradient>
<clipPath id="clip0_3367_5972">
<rect width="186.188" height="36" fill="white" transform="translate(0.694336 15)"/>
</clipPath>
</defs>
</svg>
