<svg width="230" height="66" viewBox="0 0 230 66" fill="none" xmlns="http://www.w3.org/2000/svg">
<path d="M141.567 47.9146C140.015 47.7157 138.44 47.1008 137.611 46.371C137.08 45.9037 136.448 44.9587 136.138 44.1681C135.662 42.9558 135.597 42.4153 135.549 39.2919L135.504 36.3844H138.943H142.382L142.41 38.7882C142.439 41.4017 142.464 41.542 142.97 41.9163C143.177 42.0696 143.362 42.1077 143.901 42.1077C144.488 42.1077 144.604 42.0793 144.811 41.8848C144.942 41.7621 145.097 41.4943 145.157 41.2895C145.31 40.7624 145.307 38.2787 145.153 37.749C144.874 36.7897 144.136 36.1584 141.338 34.4879C138.82 32.9844 137.723 32.058 136.818 30.6719C135.945 29.3335 135.762 28.3866 135.822 25.5081C135.872 23.1541 135.948 22.7283 136.553 21.458C136.842 20.8514 137.067 20.5382 137.574 20.0387C139.135 18.5013 141.096 17.9111 144.314 18.0107C145.218 18.0386 146.178 18.12 146.516 18.197C148.728 18.7019 150.139 19.717 150.943 21.3821C151.533 22.6043 151.64 23.2952 151.64 25.8637V27.9597H148.446H145.252L145.213 26.1512C145.17 24.104 145.089 23.7833 144.545 23.5255C144.164 23.3447 143.582 23.3403 143.164 23.5147C142.642 23.7327 142.487 24.1985 142.485 25.5586C142.482 27.5072 142.624 27.6662 146.237 29.7455C148.684 31.1535 149.883 32.1053 150.697 33.2871C151.79 34.8749 151.924 35.4169 151.983 38.4937C152.048 41.8836 151.889 43.0563 151.167 44.531C150.237 46.4316 148.37 47.5806 145.661 47.9203C144.795 48.0288 142.433 48.0261 141.567 47.9146ZM162.171 47.9535C160.52 47.7921 159.243 47.4483 158.26 46.9008C157.968 46.7382 157.416 46.2938 157.032 45.9132C155.901 44.7906 155.277 43.2946 155.035 41.1185C154.899 39.9022 154.902 25.8195 155.038 24.7089C155.48 21.101 157.411 18.9941 160.979 18.2249C162.256 17.9496 164.762 17.9593 166.108 18.2447C169.149 18.8896 171.002 20.5202 171.633 23.1063C171.898 24.1898 171.969 25.2246 171.969 27.9802V30.7069H168.451H164.932L164.894 27.9368C164.854 24.9304 164.817 24.6804 164.348 24.2315C164.106 23.9992 164.021 23.9763 163.403 23.9763C162.77 23.9763 162.705 23.995 162.45 24.251C162.271 24.4312 162.121 24.7305 162.014 25.1209C161.863 25.6685 161.85 26.2845 161.85 32.8131C161.85 40.4803 161.872 40.8864 162.32 41.4187C162.765 41.9474 163.886 41.9804 164.357 41.4787C164.799 41.0087 164.856 40.5811 164.896 37.4603L164.933 34.5529H168.451H171.969V37.614C171.969 40.7488 171.91 41.5608 171.591 42.8403C170.836 45.8642 168.61 47.539 164.84 47.9186C163.941 48.0091 162.881 48.023 162.171 47.9535ZM2.83407 47.5867C1.65136 47.1735 0.891507 46.1279 0.882036 44.9007C0.876118 44.1338 0.995639 43.9136 2.00777 42.8276C3.51849 41.2066 3.93375 39.9299 4.44402 35.3375C4.8509 31.6756 5.82764 26.249 6.50548 23.8844C7.69474 19.7359 9.54158 17.9296 12.2021 18.3129C13.7663 18.5382 14.8164 19.4544 15.7544 21.4123C16.7288 23.446 17.1682 25.2747 18.3517 32.2227C19.247 37.4785 19.337 37.9599 19.4094 37.8751C19.485 37.7865 19.5211 37.5882 20.4148 32.3552C20.8148 30.0133 21.2475 27.582 21.3763 26.9524C22.6272 20.8396 24.1386 18.474 26.9177 18.2786C28.4547 18.1705 29.7648 18.8398 30.6937 20.2076C31.9781 22.0991 32.6665 24.585 33.8293 31.5311C34.3989 34.934 34.8619 37.5242 34.9505 37.8038C35.0304 38.0563 35.1291 37.5537 35.984 32.5384C37.0234 26.4405 37.4119 24.6292 38.0972 22.687C38.6524 21.1136 39.4897 19.7265 40.2384 19.1397C41.4975 18.153 43.2992 17.9897 44.7086 18.7344C45.3157 19.0552 46.1372 19.8957 46.5935 20.6631C47.3107 21.8689 47.9723 23.8864 48.5359 26.5861C48.6884 27.3164 49.1205 29.7271 49.4962 31.9431C50.2148 36.182 50.5468 37.9684 50.6051 37.9101C50.6683 37.8468 51.0002 36.0307 51.6035 32.4468C52.2914 28.3598 52.4781 27.3467 52.8437 25.7162C53.8955 21.0247 55.338 18.7763 57.5755 18.34C59.5858 17.9481 61.3034 19.2383 61.2997 21.1375C61.2982 21.9497 61.1788 22.175 60.2077 23.1997C59.237 24.224 58.9201 24.692 58.596 25.5802C58.2026 26.6582 57.9949 27.8395 57.735 30.478C57.2906 34.9899 56.23 40.6232 55.3474 43.1586C54.2445 46.3272 52.7777 47.7395 50.5893 47.7395C48.0569 47.7395 46.4607 45.8304 45.3201 41.4375C44.9198 39.8956 44.4911 37.6846 43.8611 33.9119C43.2162 30.0498 42.8454 28.0268 42.7921 28.08C42.7261 28.1461 42.4004 29.9284 41.7516 33.7746C40.8325 39.2234 40.4822 40.9046 39.8744 42.7848C39.2571 44.6941 38.6264 45.8356 37.7301 46.6654C36.8316 47.4973 35.9486 47.7974 34.6401 47.7157C32.4325 47.578 30.9834 45.8473 29.8874 42.0394C29.4378 40.4775 29.025 38.403 28.1974 33.5457C27.3424 28.5284 27.2707 28.1429 27.1915 28.1429C27.118 28.1429 27.0171 28.6913 26.0969 34.0951C25.1532 39.636 24.7845 41.3443 24.1203 43.2526C23.3317 45.5182 22.382 46.7944 21.0049 47.4393C20.5094 47.6714 20.3691 47.6937 19.404 47.6937C18.3682 47.6937 18.3319 47.6861 17.6586 47.3538C16.001 46.5346 14.957 44.7364 14.0545 41.1462C13.6362 39.4822 13.3053 37.7507 12.5851 33.4566C12.0089 30.0214 11.6624 28.1497 11.5891 28.0764C11.5413 28.0285 11.2454 29.6569 10.4789 34.1867C9.78167 38.3072 9.40762 40.2143 9.00996 41.6764C8.06024 45.1682 6.81928 47.0117 5.05078 47.5579C4.3445 47.7761 3.41071 47.7882 2.83407 47.5867ZM78.3816 47.4389C78.3816 47.3743 77.3721 40.8339 76.1381 32.9047C74.9042 24.9754 73.8946 18.4762 73.8946 18.462C73.8946 18.4478 75.3126 18.4361 77.0458 18.4361H80.197L80.2515 18.7795C80.2815 18.9684 80.6736 22.0899 81.1228 25.7161C81.8195 31.3396 81.9492 32.6028 82.0043 34.3042C82.0399 35.4013 82.0862 36.2817 82.1072 36.2607C82.1282 36.2397 82.264 35.2596 82.4091 34.0828C82.6203 32.369 84.8473 19.2162 85.0312 18.5964C85.0748 18.4497 85.2601 18.4361 87.2228 18.4361H89.3669L89.4134 18.6421C89.439 18.7555 89.9379 21.7739 90.5221 25.3499C91.4085 30.776 92.0072 35.1184 92.0234 36.2394C92.0248 36.336 92.0452 36.3957 92.0687 36.3722C92.0922 36.3488 92.1751 35.3838 92.2529 34.2279C92.3545 32.7204 92.6584 30.1912 93.3281 25.2812L94.2617 18.4361H97.454C100.45 18.4361 100.643 18.4458 100.601 18.5964C100.577 18.6845 99.4528 25.2365 98.1035 33.1565L95.6502 47.5563H92.5561C90.4711 47.5563 89.462 47.5251 89.462 47.4609C89.462 47.4084 88.9892 44.6166 88.4115 41.2568C87.5007 35.9606 87.3464 34.9138 87.2514 33.3855C87.1911 32.4161 87.1289 31.6358 87.1131 31.6516C87.0973 31.6674 87.023 32.4812 86.9481 33.4601C86.8358 34.9272 86.6262 36.285 85.7547 41.192C85.1732 44.4657 84.6767 47.2369 84.6513 47.3503L84.6051 47.5563H81.4934C79.0237 47.5563 78.3816 47.5321 78.3816 47.4389ZM103.198 32.9962V18.4361H110.249H117.3V21.4123V24.3884H113.546H109.791V27.1356V29.8828H113.134H116.476V32.9047V35.9266H113.134H109.791V38.628V41.3293H113.591H117.392V44.4428V47.5563H110.295H103.198V32.9962ZM120.322 44.397V41.2378H121.879H123.435V32.9962V24.7547H121.879H120.322V21.5954V18.4361H126.595H132.867V21.5954V24.7547H131.357H129.846V32.9962V41.2378H131.357H132.867V44.397V47.5563H126.595H120.322V44.397ZM175.357 32.9962V18.4361H178.653H181.949L181.973 24.0908L181.996 29.7454L183.622 29.7704L185.247 29.7954V24.1157V18.4361H188.59H191.932V32.9962V47.5563H188.59H185.247V41.833V36.1097H183.599H181.95V41.833V47.5563H178.654H175.357L175.357 32.9962ZM195.595 32.9962V18.4361H202.692H209.789V21.4123V24.3884H205.988H202.188V27.1356V29.8828H205.576H208.964V32.9047V35.9266H205.576H202.188V38.628V41.3293H206.034H209.88V44.4428V47.5563H202.738H195.595V32.9962ZM213.085 32.9962V18.4361H217.608C223.508 18.4361 224.505 18.5435 226.162 19.3582C227.477 20.0043 228.312 21.0813 228.764 22.7126C228.947 23.375 228.964 23.6832 228.997 26.9557C229.035 30.8115 228.997 31.2215 228.509 32.185C228.202 32.7898 227.57 33.463 227.049 33.7395C226.823 33.8593 226.638 33.9808 226.638 34.0093C226.638 34.0379 226.791 34.1342 226.978 34.2234C227.54 34.4913 227.96 34.8787 228.233 35.3796C228.766 36.3582 228.769 36.3925 228.828 41.5583C228.881 46.2705 228.884 46.3248 229.091 46.7746C229.206 47.0246 229.368 47.3032 229.45 47.3938C229.593 47.5522 229.466 47.5576 226.173 47.5345L222.746 47.5105L222.517 47.0527L222.288 46.5948L222.243 42.3367C222.199 38.253 222.189 38.0654 222.009 37.758C221.733 37.2866 221.42 37.1691 220.342 37.1323L219.404 37.1003V42.3283V47.5563H216.245H213.085L213.085 32.9962ZM221.883 31.0495C222.06 30.9756 222.286 30.7961 222.384 30.6507C222.552 30.4032 222.563 30.2142 222.563 27.685C222.563 24.7389 222.548 24.6433 222.03 24.2593C221.806 24.0929 221.617 24.0639 220.588 24.0377L219.404 24.0075V27.6454V31.2833L220.483 31.2335C221.112 31.2046 221.696 31.1279 221.883 31.0495Z" fill="white"/>
</svg>
