<svg width="400" height="68" viewBox="0 0 400 68" fill="none" xmlns="http://www.w3.org/2000/svg">
<ellipse cx="20.1699" cy="20.0112" rx="20.1699" ry="20.0112" fill="white"/>
<path d="M24.6836 11.5859C28.9299 16.3254 27.8683 23.1714 24.6836 27.9109" stroke="black" stroke-width="6.6725" stroke-linecap="square"/>
<path d="M13.8008 13.6914C20.1702 15.7979 19.6394 24.2236 13.8008 26.3301" stroke="black" stroke-width="6.6725" stroke-linecap="square"/>
<path d="M62.2246 16.5404V20.1298H52.9268V16.5404H62.2246ZM54.6995 30.3237V16.1456C54.6995 15.0089 54.9045 14.0667 55.3145 13.3189C55.7246 12.5711 56.3034 12.0118 57.0511 11.6409C57.7988 11.27 58.6791 11.0845 59.6921 11.0845C60.3252 11.0845 60.9403 11.1324 61.5372 11.2281C62.1402 11.3238 62.5864 11.4076 62.8758 11.4794L62.1523 15.0329C61.9714 14.979 61.7603 14.9372 61.5191 14.9072C61.2779 14.8713 61.0669 14.8534 60.886 14.8534C60.4157 14.8534 60.0991 14.9521 59.9363 15.1495C59.7735 15.3469 59.6921 15.6072 59.6921 15.9302V30.3237H54.6995Z" fill="white"/>
<path d="M63.6417 30.3237V16.5404H68.4896V19.1607H68.6343C68.8876 18.1915 69.2886 17.4826 69.8373 17.034C70.392 16.5853 71.0402 16.3609 71.7819 16.3609C71.9989 16.3609 72.213 16.3789 72.424 16.4148C72.6411 16.4447 72.8491 16.4896 73.0481 16.5494V20.7759C72.8009 20.6921 72.4964 20.6293 72.1346 20.5874C71.7728 20.5456 71.4623 20.5246 71.203 20.5246C70.7146 20.5246 70.2744 20.6353 69.8825 20.8566C69.4966 21.072 69.1921 21.3771 68.969 21.7719C68.7459 22.1608 68.6343 22.6184 68.6343 23.1449V30.3237H63.6417Z" fill="white"/>
<path d="M80.0729 30.5749C78.5654 30.5749 77.2751 30.2788 76.2018 29.6865C75.1285 29.0883 74.3054 28.2568 73.7326 27.1919C73.1598 26.1211 72.8734 24.8797 72.8734 23.4679C72.8734 22.0561 73.1598 20.8178 73.7326 19.7529C74.3054 18.6821 75.1285 17.8505 76.2018 17.2583C77.2751 16.6601 78.5654 16.3609 80.0729 16.3609C81.5803 16.3609 82.8707 16.6601 83.9439 17.2583C85.0172 17.8505 85.8403 18.6821 86.4131 19.7529C86.986 20.8178 87.2724 22.0561 87.2724 23.4679C87.2724 24.8797 86.986 26.1211 86.4131 27.1919C85.8403 28.2568 85.0172 29.0883 83.9439 29.6865C82.8707 30.2788 81.5803 30.5749 80.0729 30.5749ZM80.109 26.9137C80.5311 26.9137 80.8959 26.7731 81.2034 26.492C81.511 26.2108 81.7491 25.81 81.918 25.2895C82.0868 24.7691 82.1712 24.1499 82.1712 23.432C82.1712 22.7082 82.0868 22.089 81.918 21.5745C81.7491 21.0541 81.511 20.6532 81.2034 20.3721C80.8959 20.0909 80.5311 19.9503 80.109 19.9503C79.6628 19.9503 79.2799 20.0909 78.9604 20.3721C78.6408 20.6532 78.3966 21.0541 78.2278 21.5745C78.0589 22.089 77.9745 22.7082 77.9745 23.432C77.9745 24.1499 78.0589 24.7691 78.2278 25.2895C78.3966 25.81 78.6408 26.2108 78.9604 26.492C79.2799 26.7731 79.6628 26.9137 80.109 26.9137Z" fill="white"/>
<path d="M93.7816 22.5706V30.3237H88.789V16.5404H93.5283V19.1607H93.673C93.9745 18.2872 94.5051 17.6023 95.2649 17.1057C96.0307 16.6092 96.9231 16.3609 97.9421 16.3609C98.9249 16.3609 99.7781 16.5853 100.502 17.034C101.231 17.4766 101.795 18.0868 102.193 18.8645C102.597 19.6422 102.796 20.5306 102.79 21.5297V30.3237H97.7974V22.5706C97.8034 21.8886 97.6285 21.3532 97.2728 20.9643C96.9231 20.5755 96.4347 20.3811 95.8076 20.3811C95.3975 20.3811 95.0388 20.4708 94.7313 20.6503C94.4298 20.8237 94.1976 21.075 94.0348 21.404C93.872 21.7271 93.7876 22.1159 93.7816 22.5706Z" fill="white"/>
<path d="M113.03 16.5404V20.1298H103.877V16.5404H113.03ZM105.65 13.2382H110.642V25.8908C110.642 26.0822 110.675 26.2437 110.742 26.3753C110.808 26.501 110.911 26.5967 111.049 26.6625C111.188 26.7223 111.366 26.7522 111.583 26.7522C111.734 26.7522 111.909 26.7343 112.108 26.6984C112.313 26.6625 112.463 26.6326 112.56 26.6086L113.283 30.0903C113.06 30.1561 112.741 30.2369 112.325 30.3326C111.915 30.4283 111.426 30.4912 110.859 30.5211C109.714 30.5809 108.752 30.4642 107.974 30.1711C107.196 29.872 106.611 29.4024 106.22 28.7623C105.828 28.1222 105.638 27.3205 105.65 26.3574V13.2382Z" fill="white"/>
<path d="M119.849 11.946V30.3237H114.856V11.946H119.849Z" fill="white"/>
<path d="M121.884 30.3237V16.5404H126.876V30.3237H121.884ZM124.38 15.1047C123.704 15.1047 123.126 14.8833 122.643 14.4406C122.161 13.9979 121.92 13.4655 121.92 12.8433C121.92 12.2212 122.161 11.6888 122.643 11.2461C123.126 10.8034 123.704 10.582 124.38 10.582C125.061 10.582 125.64 10.8034 126.116 11.2461C126.599 11.6888 126.84 12.2212 126.84 12.8433C126.84 13.4655 126.599 13.9979 126.116 14.4406C125.64 14.8833 125.061 15.1047 124.38 15.1047Z" fill="white"/>
<path d="M133.903 22.5706V30.3237H128.911V16.5404H133.65V19.1607H133.795C134.096 18.2872 134.627 17.6023 135.386 17.1057C136.152 16.6092 137.045 16.3609 138.064 16.3609C139.047 16.3609 139.9 16.5853 140.623 17.034C141.353 17.4766 141.917 18.0868 142.315 18.8645C142.719 19.6422 142.918 20.5306 142.912 21.5297V30.3237H137.919V22.5706C137.925 21.8886 137.75 21.3532 137.394 20.9643C137.045 20.5755 136.556 20.3811 135.929 20.3811C135.519 20.3811 135.16 20.4708 134.853 20.6503C134.551 20.8237 134.319 21.075 134.156 21.404C133.994 21.7271 133.909 22.1159 133.903 22.5706Z" fill="white"/>
<path d="M151.524 30.5749C150.04 30.5749 148.762 30.2937 147.689 29.7314C146.621 29.1631 145.798 28.3495 145.22 27.2906C144.647 26.2258 144.36 24.9515 144.36 23.4679C144.36 22.0441 144.65 20.7998 145.229 19.735C145.807 18.6701 146.624 17.8416 147.68 17.2493C148.735 16.6571 149.98 16.3609 151.415 16.3609C152.464 16.3609 153.414 16.5225 154.264 16.8455C155.114 17.1686 155.841 17.6382 156.444 18.2543C157.047 18.8645 157.511 19.6063 157.837 20.4798C158.162 21.3532 158.325 22.3373 158.325 23.432V24.5806H145.916V21.8527H153.731C153.725 21.4579 153.622 21.1109 153.423 20.8118C153.23 20.5067 152.968 20.2704 152.636 20.1029C152.311 19.9294 151.94 19.8426 151.524 19.8426C151.12 19.8426 150.749 19.9294 150.411 20.1029C150.074 20.2704 149.802 20.5037 149.597 20.8028C149.398 21.1019 149.293 21.4519 149.281 21.8527V24.796C149.281 25.2387 149.374 25.6335 149.561 25.9805C149.748 26.3275 150.016 26.5997 150.366 26.7971C150.716 26.9945 151.138 27.0932 151.632 27.0932C151.976 27.0932 152.289 27.0453 152.573 26.9496C152.862 26.8539 153.109 26.7163 153.314 26.5368C153.52 26.3514 153.67 26.1301 153.767 25.8728H158.325C158.168 26.83 157.798 27.6615 157.213 28.3674C156.628 29.0674 155.853 29.6118 154.888 30.0006C153.93 30.3835 152.808 30.5749 151.524 30.5749Z" fill="white"/>
<path d="M177.116 21.0271H172.522C172.498 20.746 172.398 20.5037 172.223 20.3003C172.048 20.0969 171.822 19.9414 171.545 19.8337C171.274 19.72 170.972 19.6632 170.64 19.6632C170.212 19.6632 169.844 19.7409 169.537 19.8965C169.229 20.052 169.079 20.2734 169.085 20.5605C169.079 20.7639 169.166 20.9524 169.347 21.1258C169.534 21.2993 169.893 21.4339 170.423 21.5297L173.245 22.0322C174.668 22.2894 175.727 22.7231 176.42 23.3333C177.119 23.9375 177.472 24.7481 177.478 25.7651C177.472 26.7462 177.177 27.5987 176.592 28.3226C176.013 29.0404 175.22 29.5968 174.213 29.9916C173.212 30.3805 172.069 30.5749 170.785 30.5749C168.663 30.5749 167.001 30.1442 165.802 29.2827C164.608 28.4213 163.941 27.2846 163.803 25.8728H168.759C168.825 26.3095 169.043 26.6475 169.41 26.8868C169.784 27.1201 170.255 27.2368 170.821 27.2368C171.28 27.2368 171.656 27.159 171.952 27.0035C172.253 26.8479 172.407 26.6266 172.413 26.3394C172.407 26.0762 172.274 25.8668 172.015 25.7113C171.762 25.5557 171.364 25.4301 170.821 25.3344L168.361 24.9037C166.944 24.6584 165.883 24.1918 165.177 23.5038C164.472 22.8159 164.122 21.9305 164.128 20.8477C164.122 19.8905 164.376 19.0799 164.888 18.4159C165.407 17.7458 166.145 17.2373 167.104 16.8904C168.069 16.5374 169.211 16.3609 170.532 16.3609C172.54 16.3609 174.123 16.7737 175.28 17.5993C176.444 18.4248 177.056 19.5675 177.116 21.0271Z" fill="white"/>
<path d="M185.538 30.5749C184.055 30.5749 182.777 30.2937 181.704 29.7314C180.636 29.1631 179.813 28.3495 179.234 27.2906C178.662 26.2258 178.375 24.9515 178.375 23.4679C178.375 22.0441 178.665 20.7998 179.243 19.735C179.822 18.6701 180.639 17.8416 181.695 17.2493C182.75 16.6571 183.995 16.3609 185.43 16.3609C186.479 16.3609 187.429 16.5225 188.279 16.8455C189.129 17.1686 189.856 17.6382 190.459 18.2543C191.062 18.8645 191.526 19.6063 191.852 20.4798C192.177 21.3532 192.34 22.3373 192.34 23.432V24.5806H179.931V21.8527H187.745C187.739 21.4579 187.637 21.1109 187.438 20.8118C187.245 20.5067 186.983 20.2704 186.651 20.1029C186.325 19.9294 185.955 19.8426 185.538 19.8426C185.134 19.8426 184.764 19.9294 184.426 20.1029C184.088 20.2704 183.817 20.5037 183.612 20.8028C183.413 21.1019 183.307 21.4519 183.295 21.8527V24.796C183.295 25.2387 183.389 25.6335 183.576 25.9805C183.763 26.3275 184.031 26.5997 184.381 26.7971C184.731 26.9945 185.153 27.0932 185.647 27.0932C185.991 27.0932 186.304 27.0453 186.588 26.9496C186.877 26.8539 187.124 26.7163 187.329 26.5368C187.534 26.3514 187.685 26.1301 187.782 25.8728H192.34C192.183 26.83 191.812 27.6615 191.228 28.3674C190.643 29.0674 189.868 29.6118 188.903 30.0006C187.944 30.3835 186.823 30.5749 185.538 30.5749Z" fill="white"/>
<path d="M200.561 30.5749C199.054 30.5749 197.763 30.2788 196.69 29.6865C195.617 29.0883 194.794 28.2568 194.221 27.1919C193.648 26.1211 193.361 24.8797 193.361 23.4679C193.361 22.0561 193.648 20.8178 194.221 19.7529C194.794 18.6821 195.617 17.8505 196.69 17.2583C197.763 16.6601 199.054 16.3609 200.561 16.3609C201.924 16.3609 203.102 16.6062 204.097 17.0968C205.098 17.5813 205.873 18.2693 206.422 19.1607C206.971 20.046 207.248 21.087 207.254 22.2834H202.623C202.557 21.5596 202.346 21.0092 201.99 20.6323C201.64 20.2494 201.188 20.058 200.633 20.058C200.199 20.058 199.819 20.1836 199.494 20.4349C199.168 20.6802 198.915 21.0541 198.734 21.5566C198.553 22.0531 198.463 22.6783 198.463 23.432C198.463 24.1858 198.553 24.8139 198.734 25.3165C198.915 25.813 199.168 26.1869 199.494 26.4381C199.819 26.6834 200.199 26.8061 200.633 26.8061C201.001 26.8061 201.327 26.7223 201.61 26.5548C201.894 26.3813 202.123 26.1301 202.298 25.801C202.478 25.466 202.587 25.0592 202.623 24.5806H207.254C207.236 25.795 206.955 26.8539 206.413 27.7572C205.87 28.6546 205.101 29.3485 204.106 29.8391C203.118 30.3296 201.936 30.5749 200.561 30.5749Z" fill="white"/>
<path d="M217.813 24.2935V16.5404H222.806V30.3237H218.066V27.7034H217.921C217.62 28.5828 217.092 29.2708 216.339 29.7673C215.585 30.2578 214.689 30.5031 213.652 30.5031C212.682 30.5031 211.831 30.2818 211.102 29.8391C210.378 29.3964 209.814 28.7862 209.41 28.0085C209.012 27.2308 208.811 26.3394 208.804 25.3344V16.5404H213.797V24.2935C213.803 24.9755 213.978 25.5109 214.322 25.8997C214.671 26.2886 215.16 26.483 215.787 26.483C216.203 26.483 216.562 26.3963 216.863 26.2228C217.171 26.0433 217.406 25.7921 217.569 25.469C217.738 25.14 217.819 24.7481 217.813 24.2935Z" fill="white"/>
<path d="M224.835 30.3237V16.5404H229.683V19.1607H229.828C230.081 18.1915 230.482 17.4826 231.031 17.034C231.586 16.5853 232.234 16.3609 232.976 16.3609C233.193 16.3609 233.407 16.3789 233.618 16.4148C233.835 16.4447 234.043 16.4896 234.242 16.5494V20.7759C233.995 20.6921 233.69 20.6293 233.328 20.5874C232.966 20.5456 232.656 20.5246 232.397 20.5246C231.908 20.5246 231.468 20.6353 231.076 20.8566C230.69 21.072 230.386 21.3771 230.163 21.7719C229.94 22.1608 229.828 22.6184 229.828 23.1449V30.3237H224.835Z" fill="white"/>
<path d="M235.369 30.3237V16.5404H240.362V30.3237H235.369ZM237.866 15.1047C237.19 15.1047 236.612 14.8833 236.129 14.4406C235.647 13.9979 235.406 13.4655 235.406 12.8433C235.406 12.2212 235.647 11.6888 236.129 11.2461C236.612 10.8034 237.19 10.582 237.866 10.582C238.547 10.582 239.126 10.8034 239.602 11.2461C240.085 11.6888 240.326 12.2212 240.326 12.8433C240.326 13.4655 240.085 13.9979 239.602 14.4406C239.126 14.8833 238.547 15.1047 237.866 15.1047Z" fill="white"/>
<path d="M250.681 16.5404V20.1298H241.528V16.5404H250.681ZM243.301 13.2382H248.294V25.8908C248.294 26.0822 248.327 26.2437 248.393 26.3753C248.459 26.501 248.562 26.5967 248.701 26.6625C248.839 26.7223 249.017 26.7522 249.234 26.7522C249.385 26.7522 249.56 26.7343 249.759 26.6984C249.964 26.6625 250.115 26.6326 250.211 26.6086L250.935 30.0903C250.711 30.1561 250.392 30.2369 249.976 30.3326C249.566 30.4283 249.077 30.4912 248.511 30.5211C247.365 30.5809 246.403 30.4642 245.625 30.1711C244.848 29.872 244.263 29.4024 243.871 28.7623C243.479 28.1222 243.289 27.3205 243.301 26.3574V13.2382Z" fill="white"/>
<path d="M255.248 35.4924C254.675 35.4924 254.13 35.4475 253.611 35.3578C253.093 35.274 252.637 35.1574 252.245 35.0078L253.331 31.4902C253.741 31.6338 254.115 31.7265 254.452 31.7684C254.796 31.8103 255.088 31.7863 255.33 31.6966C255.577 31.6069 255.755 31.4364 255.863 31.1851L255.972 30.9338L251.088 16.5404H256.297L258.54 26.0882H258.685L260.964 16.5404H266.21L261.145 31.4723C260.892 32.232 260.524 32.914 260.042 33.5182C259.566 34.1284 258.938 34.61 258.161 34.9629C257.383 35.3159 256.412 35.4924 255.248 35.4924Z" fill="white"/>
<path d="M278.379 30.5749C276.871 30.5749 275.581 30.2788 274.507 29.6865C273.434 29.0883 272.611 28.2568 272.038 27.1919C271.465 26.1211 271.179 24.8797 271.179 23.4679C271.179 22.0561 271.465 20.8178 272.038 19.7529C272.611 18.6821 273.434 17.8505 274.507 17.2583C275.581 16.6601 276.871 16.3609 278.379 16.3609C279.741 16.3609 280.92 16.6062 281.915 17.0968C282.916 17.5813 283.691 18.2693 284.239 19.1607C284.788 20.046 285.065 21.087 285.072 22.2834H280.441C280.374 21.5596 280.163 21.0092 279.808 20.6323C279.458 20.2494 279.006 20.058 278.451 20.058C278.017 20.058 277.637 20.1836 277.311 20.4349C276.986 20.6802 276.732 21.0541 276.552 21.5566C276.371 22.0531 276.28 22.6783 276.28 23.432C276.28 24.1858 276.371 24.8139 276.552 25.3165C276.732 25.813 276.986 26.1869 277.311 26.4381C277.637 26.6834 278.017 26.8061 278.451 26.8061C278.819 26.8061 279.144 26.7223 279.428 26.5548C279.711 26.3813 279.94 26.1301 280.115 25.801C280.296 25.466 280.405 25.0592 280.441 24.5806H285.072C285.053 25.795 284.773 26.8539 284.23 27.7572C283.688 28.6546 282.919 29.3485 281.924 29.8391C280.935 30.3296 279.753 30.5749 278.379 30.5749Z" fill="white"/>
<path d="M293.279 30.5749C291.796 30.5749 290.517 30.2937 289.444 29.7314C288.377 29.1631 287.554 28.3495 286.975 27.2906C286.402 26.2258 286.116 24.9515 286.116 23.4679C286.116 22.0441 286.405 20.7998 286.984 19.735C287.563 18.6701 288.38 17.8416 289.435 17.2493C290.49 16.6571 291.735 16.3609 293.17 16.3609C294.22 16.3609 295.169 16.5225 296.019 16.8455C296.87 17.1686 297.596 17.6382 298.199 18.2543C298.802 18.8645 299.266 19.6063 299.592 20.4798C299.918 21.3532 300.08 22.3373 300.08 23.432V24.5806H287.671V21.8527H295.486C295.48 21.4579 295.377 21.1109 295.178 20.8118C294.985 20.5067 294.723 20.2704 294.391 20.1029C294.066 19.9294 293.695 19.8426 293.279 19.8426C292.875 19.8426 292.504 19.9294 292.166 20.1029C291.829 20.2704 291.557 20.5037 291.352 20.8028C291.153 21.1019 291.048 21.4519 291.036 21.8527V24.796C291.036 25.2387 291.129 25.6335 291.316 25.9805C291.503 26.3275 291.771 26.5997 292.121 26.7971C292.471 26.9945 292.893 27.0932 293.387 27.0932C293.731 27.0932 294.045 27.0453 294.328 26.9496C294.617 26.8539 294.865 26.7163 295.07 26.5368C295.275 26.3514 295.425 26.1301 295.522 25.8728H300.08C299.924 26.83 299.553 27.6615 298.968 28.3674C298.383 29.0674 297.608 29.6118 296.643 30.0006C295.685 30.3835 294.563 30.5749 293.279 30.5749Z" fill="white"/>
<path d="M301.608 30.3237V16.5404H306.456V19.1607H306.601C306.854 18.1915 307.255 17.4826 307.804 17.034C308.359 16.5853 309.007 16.3609 309.748 16.3609C309.966 16.3609 310.18 16.3789 310.391 16.4148C310.608 16.4447 310.816 16.4896 311.015 16.5494V20.7759C310.767 20.6921 310.463 20.6293 310.101 20.5874C309.739 20.5456 309.429 20.5246 309.17 20.5246C308.681 20.5246 308.241 20.6353 307.849 20.8566C307.463 21.072 307.159 21.3771 306.936 21.7719C306.712 22.1608 306.601 22.6184 306.601 23.1449V30.3237H301.608Z" fill="white"/>
<path d="M320.999 16.5404V20.1298H311.846V16.5404H320.999ZM313.619 13.2382H318.612V25.8908C318.612 26.0822 318.645 26.2437 318.711 26.3753C318.777 26.501 318.88 26.5967 319.019 26.6625C319.157 26.7223 319.335 26.7522 319.552 26.7522C319.703 26.7522 319.878 26.7343 320.077 26.6984C320.282 26.6625 320.432 26.6326 320.529 26.6086L321.253 30.0903C321.029 30.1561 320.71 30.2369 320.294 30.3326C319.884 30.4283 319.395 30.4912 318.829 30.5211C317.683 30.5809 316.721 30.4642 315.943 30.1711C315.165 29.872 314.581 29.4024 314.189 28.7623C313.797 28.1222 313.607 27.3205 313.619 26.3574V13.2382Z" fill="white"/>
<path d="M322.527 30.3237V16.5404H327.52V30.3237H322.527ZM325.024 15.1047C324.348 15.1047 323.769 14.8833 323.287 14.4406C322.805 13.9979 322.563 13.4655 322.563 12.8433C322.563 12.2212 322.805 11.6888 323.287 11.2461C323.769 10.8034 324.348 10.582 325.024 10.582C325.705 10.582 326.284 10.8034 326.76 11.2461C327.242 11.6888 327.484 12.2212 327.484 12.8433C327.484 13.4655 327.242 13.9979 326.76 14.4406C326.284 14.8833 325.705 15.1047 325.024 15.1047Z" fill="white"/>
<path d="M337.875 16.5404V20.1298H328.577V16.5404H337.875ZM330.35 30.3237V16.1456C330.35 15.0089 330.555 14.0667 330.965 13.3189C331.375 12.5711 331.954 12.0118 332.702 11.6409C333.449 11.27 334.33 11.0845 335.343 11.0845C335.976 11.0845 336.591 11.1324 337.188 11.2281C337.791 11.3238 338.237 11.4076 338.526 11.4794L337.803 15.0329C337.622 14.979 337.411 14.9372 337.17 14.9072C336.929 14.8713 336.718 14.8534 336.537 14.8534C336.066 14.8534 335.75 14.9521 335.587 15.1495C335.424 15.3469 335.343 15.6072 335.343 15.9302V30.3237H330.35Z" fill="white"/>
<path d="M339.292 30.3237V16.5404H344.285V30.3237H339.292ZM341.789 15.1047C341.113 15.1047 340.534 14.8833 340.052 14.4406C339.57 13.9979 339.329 13.4655 339.329 12.8433C339.329 12.2212 339.57 11.6888 340.052 11.2461C340.534 10.8034 341.113 10.582 341.789 10.582C342.47 10.582 343.049 10.8034 343.525 11.2461C344.008 11.6888 344.249 12.2212 344.249 12.8433C344.249 13.4655 344.008 13.9979 343.525 14.4406C343.049 14.8833 342.47 15.1047 341.789 15.1047Z" fill="white"/>
<path d="M353.012 30.5749C351.505 30.5749 350.215 30.2788 349.141 29.6865C348.068 29.0883 347.245 28.2568 346.672 27.1919C346.099 26.1211 345.813 24.8797 345.813 23.4679C345.813 22.0561 346.099 20.8178 346.672 19.7529C347.245 18.6821 348.068 17.8505 349.141 17.2583C350.215 16.6601 351.505 16.3609 353.012 16.3609C354.375 16.3609 355.554 16.6062 356.549 17.0968C357.55 17.5813 358.325 18.2693 358.873 19.1607C359.422 20.046 359.699 21.087 359.705 22.2834H355.075C355.008 21.5596 354.797 21.0092 354.441 20.6323C354.092 20.2494 353.639 20.058 353.085 20.058C352.651 20.058 352.271 20.1836 351.945 20.4349C351.62 20.6802 351.366 21.0541 351.185 21.5566C351.004 22.0531 350.914 22.6783 350.914 23.432C350.914 24.1858 351.004 24.8139 351.185 25.3165C351.366 25.813 351.62 26.1869 351.945 26.4381C352.271 26.6834 352.651 26.8061 353.085 26.8061C353.453 26.8061 353.778 26.7223 354.062 26.5548C354.345 26.3813 354.574 26.1301 354.749 25.801C354.93 25.466 355.038 25.0592 355.075 24.5806H359.705C359.687 25.795 359.407 26.8539 358.864 27.7572C358.322 28.6546 357.553 29.3485 356.558 29.8391C355.569 30.3296 354.387 30.5749 353.012 30.5749Z" fill="white"/>
<path d="M365.127 30.539C364.241 30.539 363.457 30.3954 362.775 30.1083C362.1 29.8152 361.569 29.3725 361.184 28.7802C360.798 28.188 360.605 27.4342 360.605 26.5189C360.605 25.7651 360.734 25.122 360.994 24.5896C361.253 24.0512 361.615 23.6115 362.079 23.2705C362.543 22.9295 363.083 22.6693 363.698 22.4898C364.319 22.3103 364.988 22.1937 365.706 22.1399C366.484 22.08 367.108 22.0082 367.578 21.9245C368.054 21.8348 368.398 21.7121 368.609 21.5566C368.82 21.3951 368.926 21.1827 368.926 20.9195V20.8836C368.926 20.5246 368.787 20.2494 368.51 20.058C368.232 19.8666 367.877 19.7709 367.442 19.7709C366.966 19.7709 366.577 19.8755 366.276 20.0849C365.98 20.2883 365.802 20.6024 365.742 21.0271H361.147C361.208 20.1896 361.476 19.4179 361.952 18.712C362.435 18.0001 363.137 17.4318 364.06 17.007C364.982 16.5763 366.134 16.3609 367.515 16.3609C368.51 16.3609 369.402 16.4776 370.192 16.7109C370.982 16.9382 371.654 17.2583 372.209 17.6711C372.764 18.0779 373.186 18.5564 373.475 19.1068C373.771 19.6512 373.918 20.2435 373.918 20.8836V30.3237H369.251V28.3854H369.143C368.865 28.8999 368.528 29.3156 368.13 29.6327C367.738 29.9498 367.289 30.1801 366.782 30.3237C366.282 30.4672 365.73 30.539 365.127 30.539ZM366.755 27.4162C367.135 27.4162 367.491 27.3385 367.822 27.1829C368.16 27.0274 368.434 26.8031 368.645 26.5099C368.856 26.2168 368.962 25.8608 368.962 25.4421V24.2935C368.829 24.3473 368.688 24.3982 368.537 24.446C368.392 24.4939 368.235 24.5388 368.066 24.5806C367.904 24.6225 367.729 24.6614 367.542 24.6973C367.361 24.7332 367.171 24.7661 366.972 24.796C366.586 24.8558 366.27 24.9545 366.022 25.0921C365.781 25.2237 365.6 25.3882 365.48 25.5857C365.365 25.7771 365.308 25.9925 365.308 26.2318C365.308 26.6146 365.444 26.9078 365.715 27.1111C365.986 27.3145 366.333 27.4162 366.755 27.4162Z" fill="white"/>
<path d="M384.079 16.5404V20.1298H374.926V16.5404H384.079ZM376.699 13.2382H381.692V25.8908C381.692 26.0822 381.725 26.2437 381.791 26.3753C381.857 26.501 381.96 26.5967 382.099 26.6625C382.237 26.7223 382.415 26.7522 382.632 26.7522C382.783 26.7522 382.958 26.7343 383.157 26.6984C383.362 26.6625 383.513 26.6326 383.609 26.6086L384.333 30.0903C384.109 30.1561 383.79 30.2369 383.374 30.3326C382.964 30.4283 382.475 30.4912 381.909 30.5211C380.763 30.5809 379.801 30.4642 379.023 30.1711C378.246 29.872 377.661 29.4024 377.269 28.7623C376.877 28.1222 376.687 27.3205 376.699 26.3574V13.2382Z" fill="white"/>
<path d="M392.115 30.5749C390.632 30.5749 389.353 30.2937 388.28 29.7314C387.213 29.1631 386.39 28.3495 385.811 27.2906C385.238 26.2258 384.952 24.9515 384.952 23.4679C384.952 22.0441 385.241 20.7998 385.82 19.735C386.399 18.6701 387.216 17.8416 388.271 17.2493C389.326 16.6571 390.571 16.3609 392.006 16.3609C393.055 16.3609 394.005 16.5225 394.855 16.8455C395.706 17.1686 396.432 17.6382 397.035 18.2543C397.638 18.8645 398.102 19.6063 398.428 20.4798C398.754 21.3532 398.916 22.3373 398.916 23.432V24.5806H386.507V21.8527H394.322C394.316 21.4579 394.213 21.1109 394.014 20.8118C393.821 20.5067 393.559 20.2704 393.227 20.1029C392.902 19.9294 392.531 19.8426 392.115 19.8426C391.711 19.8426 391.34 19.9294 391.002 20.1029C390.665 20.2704 390.393 20.5037 390.188 20.8028C389.989 21.1019 389.884 21.4519 389.872 21.8527V24.796C389.872 25.2387 389.965 25.6335 390.152 25.9805C390.339 26.3275 390.607 26.5997 390.957 26.7971C391.307 26.9945 391.729 27.0932 392.223 27.0932C392.567 27.0932 392.881 27.0453 393.164 26.9496C393.453 26.8539 393.701 26.7163 393.906 26.5368C394.111 26.3514 394.261 26.1301 394.358 25.8728H398.916C398.76 26.83 398.389 27.6615 397.804 28.3674C397.219 29.0674 396.444 29.6118 395.479 30.0006C394.521 30.3835 393.399 30.5749 392.115 30.5749Z" fill="white"/>
<path d="M242.611 68.002L244.717 59.0516L237.716 53.0342L246.938 52.2424L250.549 43.8008L254.161 52.2407L263.381 53.0325L256.38 59.0499L258.487 68.0003L250.549 63.2497L242.611 68.002Z" fill="white"/>
<path d="M276.766 68.002L278.872 59.0516L271.871 53.0342L281.093 52.2424L284.704 43.8008L288.316 52.2407L297.536 53.0325L290.535 59.0499L292.642 68.0003L284.704 63.2497L276.766 68.002Z" fill="white"/>
<path d="M310.921 68.002L313.026 59.0516L306.025 53.0342L315.247 52.2424L318.859 43.8008L322.47 52.2407L331.69 53.0325L324.69 59.0499L326.797 68.0003L318.859 63.2497L310.921 68.002Z" fill="white"/>
<path d="M345.076 68.002L347.181 59.0516L340.181 53.0342L349.402 52.2424L353.014 43.8008L356.626 52.2407L365.846 53.0325L358.845 59.0499L360.952 68.0003L353.014 63.2497L345.076 68.002Z" fill="white"/>
<path d="M379.23 68.002L381.336 59.0516L374.335 53.0342L383.557 52.2424L387.168 43.8008L390.78 52.2407L400 53.0325L392.999 59.0499L395.106 68.0003L387.168 63.2497L379.23 68.002Z" fill="white"/>
</svg>
