<svg width="86" height="32" viewBox="0 0 86 32" fill="none" xmlns="http://www.w3.org/2000/svg">
<path d="M7.12507 12.6022V15.3746H0V12.6022H7.12507ZM1.35848 23.2482V12.2972C1.35848 11.4193 1.51558 10.6915 1.82978 10.114C2.14399 9.53637 2.58757 9.10434 3.16054 8.81786C3.7335 8.53138 4.40812 8.38814 5.18439 8.38814C5.66956 8.38814 6.14087 8.4251 6.59832 8.49903C7.06038 8.57296 7.40231 8.63765 7.6241 8.6931L7.06962 11.4378C6.931 11.3962 6.76928 11.3638 6.58445 11.3407C6.39963 11.313 6.2379 11.2992 6.09928 11.2992C5.73887 11.2992 5.49629 11.3754 5.37153 11.5279C5.24677 11.6804 5.18439 11.8814 5.18439 12.1309V23.2482H1.35848Z" fill="white"/>
<path d="M8.21102 23.2482V12.6022H11.926V14.626H12.0369C12.231 13.8775 12.5383 13.3299 12.9588 12.9834C13.3839 12.6368 13.8806 12.4636 14.4489 12.4636C14.6153 12.4636 14.7793 12.4774 14.941 12.5052C15.1074 12.5283 15.2668 12.5629 15.4193 12.6091V15.8736C15.2298 15.8089 14.9965 15.7604 14.7192 15.7281C14.442 15.6957 14.204 15.6796 14.0053 15.6796C13.6311 15.6796 13.2938 15.765 12.9934 15.936C12.6977 16.1023 12.4643 16.338 12.2934 16.643C12.1224 16.9433 12.0369 17.2968 12.0369 17.7034V23.2482H8.21102Z" fill="white"/>
<path d="M20.8024 23.4423C19.6473 23.4423 18.6584 23.2136 17.836 22.7561C17.0135 22.294 16.3828 21.6518 15.9438 20.8293C15.5048 20.0022 15.2854 19.0434 15.2854 17.9529C15.2854 16.8624 15.5048 15.906 15.9438 15.0835C16.3828 14.2564 17.0135 13.6141 17.836 13.1567C18.6584 12.6946 19.6473 12.4636 20.8024 12.4636C21.9576 12.4636 22.9464 12.6946 23.7689 13.1567C24.5914 13.6141 25.2221 14.2564 25.6611 15.0835C26.1 15.906 26.3195 16.8624 26.3195 17.9529C26.3195 19.0434 26.1 20.0022 25.6611 20.8293C25.2221 21.6518 24.5914 22.294 23.7689 22.7561C22.9464 23.2136 21.9576 23.4423 20.8024 23.4423ZM20.8302 20.6144C21.1536 20.6144 21.4332 20.5058 21.6688 20.2887C21.9045 20.0715 22.087 19.7619 22.2164 19.3599C22.3457 18.9579 22.4104 18.4797 22.4104 17.9252C22.4104 17.3661 22.3457 16.8879 22.2164 16.4905C22.087 16.0885 21.9045 15.7789 21.6688 15.5617C21.4332 15.3446 21.1536 15.236 20.8302 15.236C20.4882 15.236 20.1948 15.3446 19.9499 15.5617C19.705 15.7789 19.5179 16.0885 19.3885 16.4905C19.2591 16.8879 19.1944 17.3661 19.1944 17.9252C19.1944 18.4797 19.2591 18.9579 19.3885 19.3599C19.5179 19.7619 19.705 20.0715 19.9499 20.2887C20.1948 20.5058 20.4882 20.6144 20.8302 20.6144Z" fill="white"/>
<path d="M31.3076 17.2598V23.2482H27.4817V12.6022H31.1136V14.626H31.2244C31.4555 13.9514 31.8621 13.4224 32.4443 13.0388C33.0311 12.6553 33.715 12.4636 34.4959 12.4636C35.2491 12.4636 35.9029 12.6368 36.4574 12.9834C37.0165 13.3253 37.4485 13.7966 37.7535 14.3973C38.063 14.998 38.2155 15.6842 38.2109 16.4558V23.2482H34.385V17.2598C34.3896 16.7331 34.2556 16.3195 33.983 16.0192C33.715 15.7188 33.3407 15.5687 32.8602 15.5687C32.546 15.5687 32.271 15.638 32.0354 15.7766C31.8043 15.9106 31.6264 16.1047 31.5017 16.3588C31.3769 16.6083 31.3122 16.9087 31.3076 17.2598Z" fill="white"/>
<path d="M46.058 12.6022V15.3746H39.0439V12.6022H46.058ZM40.4023 10.0516H44.2283V19.8243C44.2283 19.9722 44.2537 20.0969 44.3045 20.1986C44.3553 20.2956 44.4339 20.3695 44.5401 20.4204C44.6464 20.4666 44.7827 20.4897 44.9491 20.4897C45.0646 20.4897 45.1986 20.4758 45.3511 20.4481C45.5082 20.4204 45.6237 20.3973 45.6976 20.3788L46.2521 23.068C46.0811 23.1188 45.8363 23.1812 45.5174 23.2551C45.2032 23.3291 44.8289 23.3776 44.3946 23.4007C43.5167 23.4469 42.7797 23.3568 42.1836 23.1304C41.5875 22.8993 41.1393 22.5366 40.839 22.0422C40.5387 21.5478 40.3931 20.9286 40.4023 20.1847V10.0516Z" fill="white"/>
<path d="M51.2835 9.05351V23.2482H47.4576V9.05351H51.2835Z" fill="white"/>
<path d="M52.8425 23.2482V12.6022H56.6684V23.2482H52.8425ZM54.7555 11.4932C54.238 11.4932 53.7944 11.3223 53.4247 10.9803C53.0551 10.6384 52.8703 10.2272 52.8703 9.74661C52.8703 9.26606 53.0551 8.85482 53.4247 8.51289C53.7944 8.17096 54.238 8 54.7555 8C55.2776 8 55.7212 8.17096 56.0862 8.51289C56.4559 8.85482 56.6407 9.26606 56.6407 9.74661C56.6407 10.2272 56.4559 10.6384 56.0862 10.9803C55.7212 11.3223 55.2776 11.4932 54.7555 11.4932Z" fill="white"/>
<path d="M62.0533 17.2598V23.2482H58.2274V12.6022H61.8593V14.626H61.9702C62.2012 13.9514 62.6078 13.4224 63.19 13.0388C63.7769 12.6553 64.4607 12.4636 65.2416 12.4636C65.9948 12.4636 66.6486 12.6368 67.2031 12.9834C67.7622 13.3253 68.1942 13.7966 68.4992 14.3973C68.8088 14.998 68.9612 15.6842 68.9566 16.4558V23.2482H65.1307V17.2598C65.1353 16.7331 65.0013 16.3195 64.7287 16.0192C64.4607 15.7188 64.0864 15.5687 63.6059 15.5687C63.2917 15.5687 63.0168 15.638 62.7811 15.7766C62.5501 15.9106 62.3722 16.1047 62.2474 16.3588C62.1227 16.6083 62.058 16.9087 62.0533 17.2598Z" fill="white"/>
<path d="M75.5562 23.4423C74.4195 23.4423 73.4399 23.2251 72.6174 22.7908C71.7996 22.3518 71.1689 21.7234 70.7253 20.9055C70.2863 20.0831 70.0668 19.0988 70.0668 17.9529C70.0668 16.8532 70.2886 15.8921 70.7322 15.0696C71.1758 14.2471 71.8019 13.6072 72.6105 13.1497C73.4191 12.6923 74.3733 12.4636 75.473 12.4636C76.277 12.4636 77.0048 12.5883 77.6563 12.8378C78.3078 13.0874 78.8646 13.4501 79.3267 13.926C79.7887 14.3973 80.1445 14.9703 80.394 15.6449C80.6435 16.3195 80.7683 17.0796 80.7683 17.9252V18.8124H71.259V16.7053H77.2474C77.2427 16.4004 77.1642 16.1324 77.0117 15.9013C76.8638 15.6657 76.6628 15.4832 76.4087 15.3538C76.1592 15.2198 75.875 15.1528 75.5562 15.1528C75.2466 15.1528 74.9624 15.2198 74.7037 15.3538C74.4449 15.4832 74.237 15.6634 74.0799 15.8944C73.9274 16.1254 73.8465 16.3958 73.8373 16.7053V18.9787C73.8373 19.3206 73.9089 19.6256 74.0522 19.8936C74.1954 20.1616 74.401 20.3718 74.669 20.5243C74.937 20.6768 75.2605 20.753 75.6394 20.753C75.9027 20.753 76.143 20.7161 76.3602 20.6422C76.582 20.5682 76.7714 20.4619 76.9285 20.3233C77.0856 20.1801 77.2011 20.0091 77.2751 19.8104H80.7683C80.6482 20.5497 80.364 21.192 79.9158 21.7373C79.4676 22.2779 78.8738 22.6984 78.1345 22.9987C77.3998 23.2944 76.5404 23.4423 75.5562 23.4423Z" fill="white"/>
<path d="M84.0185 23.47C83.4825 23.47 83.0227 23.2829 82.6392 22.9086C82.2603 22.5297 82.0732 22.0699 82.0778 21.5293C82.0732 21.0026 82.2603 20.552 82.6392 20.1778C83.0227 19.8035 83.4825 19.6164 84.0185 19.6164C84.5267 19.6164 84.9749 19.8035 85.3631 20.1778C85.7558 20.552 85.9545 21.0026 85.9591 21.5293C85.9545 21.8897 85.8598 22.2178 85.675 22.5135C85.4948 22.8046 85.2591 23.038 84.968 23.2136C84.6769 23.3845 84.3604 23.47 84.0185 23.47Z" fill="white"/>
</svg>
