<svg width="24" height="24" viewBox="0 0 24 24" fill="none" xmlns="http://www.w3.org/2000/svg">
<path d="M11.4407 9.57341C12.7514 9.57341 13.7006 9.32964 14.2881 8.84211C14.8983 8.35457 15.2034 7.75623 15.2034 7.04709V6.81441C15.2034 5.9723 14.9096 5.30748 14.322 4.81995C13.7571 4.31025 12.9435 4.0554 11.8814 4.0554C10.9096 4.0554 9.99435 4.29917 9.13559 4.7867C8.29944 5.25208 7.58757 5.92798 7 6.81441L3.77966 3.8892C4.23164 3.31302 4.72881 2.79224 5.27119 2.32687C5.81356 1.83933 6.41243 1.42936 7.0678 1.09695C7.72316 0.742383 8.45763 0.476455 9.27119 0.299169C10.1073 0.099723 11.0452 0 12.0847 0C13.3729 0 14.5367 0.144044 15.5763 0.432133C16.6158 0.720222 17.4972 1.14127 18.2203 1.69529C18.9661 2.22715 19.5424 2.86981 19.9492 3.62327C20.3559 4.37673 20.5593 5.21884 20.5593 6.14958C20.5593 6.88089 20.435 7.54571 20.1864 8.14404C19.9379 8.74238 19.5989 9.26316 19.1695 9.70637C18.7627 10.1496 18.2768 10.5152 17.7119 10.8033C17.1695 11.0693 16.5819 11.2576 15.9492 11.3684V11.5679C17.3955 11.8116 18.5932 12.41 19.5424 13.3629C20.5141 14.2936 21 15.5568 21 17.1524C21 18.1939 20.774 19.1357 20.322 19.9778C19.8927 20.8199 19.2712 21.5402 18.4576 22.1385C17.6667 22.7368 16.6949 23.2022 15.5424 23.5346C14.4124 23.8449 13.1469 24 11.7458 24C10.548 24 9.48588 23.8781 8.55932 23.6343C7.65537 23.3906 6.85311 23.0693 6.15254 22.6704C5.45198 22.2493 4.84181 21.7729 4.32203 21.241C3.82486 20.687 3.38418 20.1219 3 19.5457L6.76271 16.687C7.28249 17.6399 7.92655 18.4266 8.69492 19.0471C9.48588 19.6454 10.5367 19.9446 11.8475 19.9446C13.0678 19.9446 14.0057 19.6676 14.661 19.1136C15.3164 18.5596 15.6441 17.795 15.6441 16.8199V16.5873C15.6441 15.6343 15.2712 14.9252 14.5254 14.4598C13.7797 13.9723 12.7401 13.7285 11.4068 13.7285H9.20339V9.57341H11.4407Z" fill="#B6B6B6"/>
</svg>
