<svg width="24" height="24" viewBox="0 0 24 24" fill="none" xmlns="http://www.w3.org/2000/svg">
<path d="M21 24H3.52224V19.369L11.1818 13.1831C12.5048 12.0789 13.4565 11.1211 14.0368 10.3099C14.617 9.49859 14.9072 8.64225 14.9072 7.74085V7.40282C14.9072 6.41127 14.6054 5.66761 14.0019 5.17183C13.3985 4.65352 12.5861 4.39437 11.5648 4.39437C10.4043 4.39437 9.51064 4.72113 8.88395 5.37465C8.25725 6.02817 7.81625 6.80563 7.56093 7.70704L3 6.0169C3.27853 5.20563 3.66151 4.43944 4.14894 3.71831C4.63636 2.97465 5.25145 2.3324 5.9942 1.79155C6.76015 1.2507 7.64217 0.822535 8.64023 0.507042C9.6383 0.169014 10.7872 0 12.087 0C13.4101 0 14.5938 0.180282 15.6383 0.540846C16.6828 0.901409 17.5648 1.39718 18.2843 2.02817C19.0039 2.65915 19.5493 3.41408 19.9207 4.29296C20.2921 5.1493 20.4778 6.08451 20.4778 7.09859C20.4778 8.09014 20.3037 9.00282 19.9555 9.83662C19.6306 10.6479 19.1663 11.4141 18.5629 12.1352C17.9826 12.8563 17.2863 13.5549 16.4739 14.231C15.6847 14.907 14.8375 15.5831 13.9323 16.2592L9.30174 19.7408H21V24Z" fill="#B6B6B6"/>
</svg>
