<svg xmlns="http://www.w3.org/2000/svg" width="32" height="32" viewBox="0 0 32 32" fill="none">
  <circle cx="16" cy="16" r="16" fill="white"/>
  <circle cx="16" cy="16" r="12.9032" fill="black"/>
  <path d="M10.8387 8.25879C10.1543 8.25879 9.49787 8.53068 9.01391 9.01464C8.52995 9.49861 8.25806 10.155 8.25806 10.8394V11.0988L16 15.2678L23.7419 11.1001V10.8394C23.7419 10.155 23.47 9.49861 22.9861 9.01464C22.5021 8.53068 21.8457 8.25879 21.1613 8.25879H10.8387Z" fill="white"/>
  <path d="M23.7419 15.1445L16.3058 19.1484C16.2118 19.199 16.1067 19.2255 16 19.2255C15.8932 19.2255 15.7882 19.199 15.6942 19.1484L8.25806 15.1445V21.1613C8.25806 21.8457 8.52995 22.5021 9.01391 22.9861C9.49787 23.4701 10.1543 23.742 10.8387 23.742H21.1613C21.8457 23.742 22.5021 23.4701 22.9861 22.9861C23.47 22.5021 23.7419 21.8457 23.7419 21.1613V15.1445Z" fill="white"/>
</svg>