<svg xmlns="http://www.w3.org/2000/svg" width="100" height="32" viewBox="0 0 100 32" fill="none">
  <path d="M0.0742188 23V8.44922H5.37695L7.24219 14.1328C7.34635 14.4779 7.4668 14.9238 7.60352 15.4707C7.74023 16.0111 7.87695 16.5905 8.01367 17.209C8.1569 17.8275 8.28711 18.4232 8.4043 18.9961C8.52799 19.569 8.62565 20.0573 8.69727 20.4609H7.96484C8.04297 20.0573 8.14062 19.5723 8.25781 19.0059C8.375 18.4329 8.50195 17.8372 8.63867 17.2188C8.7819 16.6003 8.91862 16.0176 9.04883 15.4707C9.18555 14.9238 9.30599 14.4779 9.41016 14.1328L11.2461 8.44922H16.5684V23H13.1113V16.7207C13.1113 16.3952 13.1178 15.9818 13.1309 15.4805C13.1439 14.9792 13.1569 14.4355 13.1699 13.8496C13.1895 13.2572 13.2057 12.6615 13.2188 12.0625C13.2318 11.457 13.2415 10.8971 13.248 10.3828H13.5215C13.3913 10.9427 13.248 11.5286 13.0918 12.1406C12.9421 12.7461 12.7891 13.3385 12.6328 13.918C12.4766 14.4974 12.3301 15.028 12.1934 15.5098C12.0566 15.9915 11.9362 16.3952 11.832 16.7207L9.76172 23H6.89062L4.78125 16.7207C4.68359 16.4017 4.56315 16.0013 4.41992 15.5195C4.27669 15.0312 4.12695 14.5007 3.9707 13.9277C3.81445 13.3483 3.65495 12.7559 3.49219 12.1504C3.33594 11.5384 3.18945 10.9492 3.05273 10.3828H3.38477C3.38477 10.8906 3.39128 11.444 3.4043 12.043C3.42383 12.6419 3.4401 13.2376 3.45312 13.8301C3.47266 14.416 3.48893 14.9629 3.50195 15.4707C3.51497 15.9785 3.52148 16.3952 3.52148 16.7207V23H0.0742188Z" fill="white"/>
  <path d="M21.3832 23.1855C20.6866 23.1855 20.0681 23.0716 19.5277 22.8438C18.9939 22.6094 18.574 22.2578 18.268 21.7891C17.962 21.3203 17.809 20.7311 17.809 20.0215C17.809 19.4225 17.9132 18.9212 18.1215 18.5176C18.3363 18.1074 18.6293 17.7754 19.0004 17.5215C19.3715 17.2611 19.8012 17.0658 20.2895 16.9355C20.7777 16.7988 21.2986 16.7077 21.852 16.6621C22.4704 16.61 22.9652 16.5547 23.3363 16.4961C23.7139 16.431 23.9874 16.3398 24.1566 16.2227C24.3259 16.099 24.4105 15.9297 24.4105 15.7148V15.666C24.4105 15.4316 24.352 15.2298 24.2348 15.0605C24.1176 14.8913 23.9483 14.7611 23.727 14.6699C23.5121 14.5788 23.2517 14.5332 22.9457 14.5332C22.6332 14.5332 22.3565 14.582 22.1156 14.6797C21.8813 14.7708 21.6892 14.901 21.5395 15.0703C21.3897 15.2396 21.2921 15.4382 21.2465 15.666L18.141 15.4023C18.2582 14.7383 18.5186 14.1621 18.9223 13.6738C19.3324 13.179 19.8793 12.7982 20.5629 12.5312C21.253 12.2578 22.0668 12.1211 23.0043 12.1211C23.7074 12.1211 24.352 12.2025 24.9379 12.3652C25.5238 12.5215 26.0284 12.7559 26.4516 13.0684C26.8813 13.3743 27.2133 13.752 27.4477 14.2012C27.682 14.6504 27.7992 15.1647 27.7992 15.7441V23H24.5668V21.4961H24.4887C24.2934 21.8672 24.046 22.1797 23.7465 22.4336C23.4535 22.681 23.1117 22.8698 22.7211 23C22.3305 23.1237 21.8845 23.1855 21.3832 23.1855ZM22.4184 20.9492C22.796 20.9492 23.1378 20.8743 23.4438 20.7246C23.7497 20.5749 23.9906 20.3665 24.1664 20.0996C24.3487 19.8327 24.4398 19.5234 24.4398 19.1719V18.166C24.3487 18.2116 24.2315 18.2572 24.0883 18.3027C23.9516 18.3418 23.7986 18.3809 23.6293 18.4199C23.46 18.4525 23.2875 18.485 23.1117 18.5176C22.9359 18.5436 22.7602 18.5729 22.5844 18.6055C22.2589 18.651 21.9789 18.7292 21.7445 18.8398C21.5167 18.944 21.3376 19.0807 21.2074 19.25C21.0837 19.4193 21.0219 19.6243 21.0219 19.8652C21.0219 20.0996 21.0805 20.2982 21.1977 20.4609C21.3214 20.6172 21.4874 20.7376 21.6957 20.8223C21.904 20.9069 22.1449 20.9492 22.4184 20.9492Z" fill="white"/>
  <path d="M29.5184 23V12.2871H32.907V23H29.5184ZM31.2078 11.0957C30.7 11.0957 30.2736 10.9362 29.9285 10.6172C29.5835 10.2982 29.4109 9.9043 29.4109 9.43555C29.4109 8.9668 29.5835 8.57292 29.9285 8.25391C30.2736 7.9349 30.6967 7.77539 31.198 7.77539C31.7059 7.77539 32.1323 7.9349 32.4773 8.25391C32.8224 8.57292 32.9949 8.9668 32.9949 9.43555C32.9949 9.9043 32.8224 10.2982 32.4773 10.6172C32.1323 10.9362 31.7091 11.0957 31.2078 11.0957Z" fill="white"/>
  <path d="M38.0344 8.44922V23H34.6457V8.44922H38.0344Z" fill="white"/>
  <path d="M46.4137 23.2051C45.0204 23.2051 43.7965 22.9023 42.7418 22.2969C41.6936 21.6849 40.8766 20.8223 40.2906 19.709C39.7047 18.5892 39.4117 17.2676 39.4117 15.7441C39.4117 14.1556 39.721 12.8047 40.3395 11.6914C40.9579 10.5716 41.7913 9.71875 42.8395 9.13281C43.8876 8.54036 45.0628 8.24414 46.3648 8.24414C47.2112 8.24414 47.999 8.36458 48.7281 8.60547C49.4638 8.84635 50.1148 9.19141 50.6813 9.64062C51.2542 10.0898 51.7164 10.6204 52.068 11.2324C52.426 11.8444 52.6474 12.5215 52.732 13.2637H49.2164C49.1448 12.9512 49.0276 12.6745 48.8648 12.4336C48.7086 12.1862 48.51 11.9779 48.2691 11.8086C48.0348 11.6328 47.7646 11.5026 47.4586 11.418C47.1591 11.3268 46.8206 11.2812 46.443 11.2812C45.7268 11.2812 45.1051 11.457 44.5777 11.8086C44.0504 12.1536 43.6435 12.6582 43.357 13.3223C43.0771 13.9798 42.9371 14.7773 42.9371 15.7148C42.9371 16.6523 43.0771 17.4531 43.357 18.1172C43.637 18.7812 44.0406 19.2891 44.568 19.6406C45.0953 19.9922 45.7301 20.168 46.4723 20.168C47.1103 20.168 47.6572 20.0605 48.1129 19.8457C48.5686 19.6309 48.9137 19.3249 49.148 18.9277C49.3889 18.5306 49.5094 18.0684 49.5094 17.541L50.2027 17.6191H46.5992V15.0703H52.8785V17.0039C52.8785 18.2799 52.6018 19.3835 52.0484 20.3145C51.4951 21.2389 50.7333 21.9518 49.7633 22.4531C48.7932 22.9544 47.6767 23.2051 46.4137 23.2051Z" fill="white"/>
  <path d="M58.0352 23.166C57.2799 23.166 56.6224 23 56.0625 22.668C55.5091 22.3294 55.0827 21.8542 54.7832 21.2422C54.4837 20.6302 54.334 19.9076 54.334 19.0742V12.2871H57.7227V18.4004C57.7227 19.0124 57.8757 19.4909 58.1816 19.8359C58.4941 20.1745 58.9238 20.3438 59.4707 20.3438C59.8353 20.3438 60.1543 20.2656 60.4277 20.1094C60.7012 19.9531 60.9128 19.722 61.0625 19.416C61.2188 19.11 61.2969 18.7389 61.2969 18.3027V12.2871H64.6855V23H61.4434L61.4043 20.2461H61.668C61.3815 21.125 60.9453 21.8314 60.3594 22.3652C59.7799 22.8991 59.0052 23.166 58.0352 23.166Z" fill="white"/>
  <path d="M69.5004 23.1855C68.8038 23.1855 68.1853 23.0716 67.6449 22.8438C67.1111 22.6094 66.6911 22.2578 66.3852 21.7891C66.0792 21.3203 65.9262 20.7311 65.9262 20.0215C65.9262 19.4225 66.0303 18.9212 66.2387 18.5176C66.4535 18.1074 66.7465 17.7754 67.1176 17.5215C67.4887 17.2611 67.9184 17.0658 68.4066 16.9355C68.8949 16.7988 69.4158 16.7077 69.9691 16.6621C70.5876 16.61 71.0824 16.5547 71.4535 16.4961C71.8311 16.431 72.1046 16.3398 72.2738 16.2227C72.4431 16.099 72.5277 15.9297 72.5277 15.7148V15.666C72.5277 15.4316 72.4691 15.2298 72.352 15.0605C72.2348 14.8913 72.0655 14.7611 71.8441 14.6699C71.6293 14.5788 71.3689 14.5332 71.0629 14.5332C70.7504 14.5332 70.4737 14.582 70.2328 14.6797C69.9984 14.7708 69.8064 14.901 69.6566 15.0703C69.5069 15.2396 69.4092 15.4382 69.3637 15.666L66.2582 15.4023C66.3754 14.7383 66.6358 14.1621 67.0395 13.6738C67.4496 13.179 67.9965 12.7982 68.6801 12.5312C69.3702 12.2578 70.184 12.1211 71.1215 12.1211C71.8246 12.1211 72.4691 12.2025 73.0551 12.3652C73.641 12.5215 74.1456 12.7559 74.5687 13.0684C74.9984 13.3743 75.3305 13.752 75.5648 14.2012C75.7992 14.6504 75.9164 15.1647 75.9164 15.7441V23H72.684V21.4961H72.6059C72.4105 21.8672 72.1631 22.1797 71.8637 22.4336C71.5707 22.681 71.2289 22.8698 70.8383 23C70.4477 23.1237 70.0017 23.1855 69.5004 23.1855ZM70.5355 20.9492C70.9131 20.9492 71.2549 20.8743 71.5609 20.7246C71.8669 20.5749 72.1078 20.3665 72.2836 20.0996C72.4659 19.8327 72.557 19.5234 72.557 19.1719V18.166C72.4659 18.2116 72.3487 18.2572 72.2055 18.3027C72.0687 18.3418 71.9158 18.3809 71.7465 18.4199C71.5772 18.4525 71.4047 18.485 71.2289 18.5176C71.0531 18.5436 70.8773 18.5729 70.7016 18.6055C70.376 18.651 70.0961 18.7292 69.8617 18.8398C69.6339 18.944 69.4548 19.0807 69.3246 19.25C69.2009 19.4193 69.1391 19.6243 69.1391 19.8652C69.1391 20.0996 69.1977 20.2982 69.3148 20.4609C69.4385 20.6172 69.6046 20.7376 69.8129 20.8223C70.0212 20.9069 70.2621 20.9492 70.5355 20.9492Z" fill="white"/>
  <path d="M77.6355 23V12.2871H80.9266V14.2207H81.0047C81.2 13.5176 81.5158 13.0033 81.952 12.6777C82.3881 12.3457 82.922 12.1797 83.5535 12.1797C83.7163 12.1797 83.879 12.1862 84.0418 12.1992C84.2046 12.2122 84.3575 12.235 84.5008 12.2676V15.168C84.351 15.1289 84.1427 15.0996 83.8758 15.0801C83.6154 15.054 83.3745 15.041 83.1531 15.041C82.743 15.041 82.3751 15.1322 82.0496 15.3145C81.7306 15.4967 81.4799 15.7539 81.2977 16.0859C81.1154 16.418 81.0242 16.8118 81.0242 17.2676V23H77.6355Z" fill="white"/>
  <path d="M89.0422 23.1855C88.2089 23.1855 87.4569 22.9707 86.7863 22.541C86.1223 22.1113 85.5982 21.4863 85.2141 20.666C84.83 19.8392 84.6379 18.8333 84.6379 17.6484C84.6379 16.444 84.8365 15.4316 85.2336 14.6113C85.6307 13.7845 86.1613 13.1628 86.8254 12.7461C87.4895 12.3294 88.2186 12.1211 89.0129 12.1211C89.5533 12.1211 90.0188 12.2057 90.4094 12.375C90.8065 12.5443 91.1418 12.7721 91.4152 13.0586C91.6887 13.3385 91.9035 13.651 92.0598 13.9961H92.1184V8.44922H95.5168V23H92.1574V21.291H92.0793C91.923 21.6426 91.705 21.9616 91.425 22.248C91.1516 22.5345 90.8163 22.7624 90.4191 22.9316C90.0285 23.1009 89.5695 23.1855 89.0422 23.1855ZM90.1359 20.5098C90.5656 20.5098 90.9335 20.3926 91.2395 20.1582C91.552 19.9173 91.7928 19.582 91.9621 19.1523C92.1314 18.7227 92.216 18.2181 92.216 17.6387C92.216 17.0592 92.1314 16.5579 91.9621 16.1348C91.7994 15.7051 91.5617 15.373 91.2492 15.1387C90.9367 14.9043 90.5656 14.7871 90.1359 14.7871C89.7063 14.7871 89.3384 14.9043 89.0324 15.1387C88.7329 15.373 88.5051 15.7051 88.3488 16.1348C88.1926 16.5579 88.1145 17.0592 88.1145 17.6387C88.1145 18.2246 88.1926 18.7324 88.3488 19.1621C88.5051 19.5918 88.7329 19.9238 89.0324 20.1582C89.3384 20.3926 89.7063 20.5098 90.1359 20.5098Z" fill="white"/>
</svg>